<svg xmlns="http://www.w3.org/2000/svg" viewBox="0 0 164.82 49.27"><defs><style>.cls-1{fill:#e30613;}.cls-2{fill:#fff;}.cls-3{fill:#ffd004;}.cls-4{fill:#662483;}</style></defs><g id="Capa_2" data-name="Capa 2"><g id="Capa_1-2" data-name="Capa 1"><path class="cls-1" d="M164.33,17c.72.22.58.92,0,1.52a1.24,1.24,0,0,1-.5,1.82l-1.49,1a.13.13,0,0,1-.09,0c-.06.18-.06.4-.17.48-.34.28-.71.5-1.07.75s-.57.36-.84.57c-.56.43-1.12.85-1.65,1.3-.69.6-1.32,1.28-2,1.84a13.67,13.67,0,0,1-1.62.94l-.38.18c.41.39.8.75,1.17,1.14A17,17,0,0,1,157,30.09c.43.6.76,1.28,1.13,1.92.26.43.54.84.78,1.28.56,1,1.09,2.09,1.64,3.13.19.35.41.69.6,1a.48.48,0,0,1-.1.68c-.06.06,0,.26,0,.37s.22.4.27.61c.09.41-.19.65-.59.55a.53.53,0,0,1-.18-.05,2,2,0,0,0-1.34-.17,5.39,5.39,0,0,1-.65,0,2.58,2.58,0,0,0-.09.48c0,.49-.11.39-.57.51-.76.2-1.1-.39-1.62-.64-.75-.36-1.51-.69-2.28-1s-1.7-.57-2.49-1a5.1,5.1,0,0,0-1.29-.33,4.81,4.81,0,0,1-.77-.35,9.32,9.32,0,0,1-1.66-.86.84.84,0,0,0-.16-.07.47.47,0,0,0-.07.17c0,.57,0,1.15,0,1.72a5,5,0,0,1-.54,2,11,11,0,0,1-.85,1.68c-.84,1.41-1.7,2.81-2.55,4.22-.19.32-.31.68-.52,1s-.53.72-.8,1.07a1.81,1.81,0,0,0-.28.42c-.11.29-.22.59-.55.67s-.58-.28-.67-.67a24.7,24.7,0,0,0-.92-3.37c-.47-1.29-.91-2.58-1.39-3.86a7.78,7.78,0,0,0-.5-.89,7.77,7.77,0,0,1-.41-.88,13.71,13.71,0,0,1-.47-1.41c-.13-.49-.35-.63-.83-.42-.88.37-1.74.78-2.63,1.14-1.23.49-2.47.94-3.71,1.4-.9.34-1.81.7-2.72,1a7.91,7.91,0,0,1-1.36.32.94.94,0,0,1-1-.46c-.1-.24.09-.63.17-1-.25-.37-.22-.61.07-1.07.48-.75.92-1.52,1.36-2.3a.47.47,0,0,0,0-.36c0-.12-.15-.2-.21-.31s-.24-.41.06-.61a.67.67,0,0,0,.22-.44c0-.26.26-.33.39-.49s.31-.55.49-.81c.43-.66.89-1.3,1.31-2,.57-.9,1.11-1.81,1.7-2.78-.61-.26-1.21-.49-1.78-.77-.77-.37-1.53-.75-2.28-1.17-1.65-.94-3.29-1.91-4.93-2.86-.6-.35-1.19-.71-1.78-1.07s-.51-1,.08-1.37c.32-.2.3-.34.1-.56s-.18-.21-.28-.31c-.35-.36-.35-.65.06-1a3.11,3.11,0,0,1,.78-.42c.47-.17,1-.29,1.44-.43.09,0,.24-.09.24-.14,0-.42.35-.53.63-.61a2.66,2.66,0,0,1,.89,0c.21,0,.41.09.63.09a2.89,2.89,0,0,0-1.26-1.35c0-.13.23-.25-.16-.37s-.55-.6-.8-.94a.27.27,0,0,1,.08-.23,1.65,1.65,0,0,1,1.48-.39,7.34,7.34,0,0,0,1.47.28c.92.08,1.84.07,2.75.17s1.75.27,2.63.38c.62.08,1.24.11,1.87.17a1.9,1.9,0,0,1,.34.13v-.52l.22.09a4.28,4.28,0,0,1-.08-1.11c.06-.35-.17-.75.16-1.06a.27.27,0,0,0,0-.18c0-.65,0-1.29,0-1.93-.12-1-.31-1.92-.45-2.88,0-.18.05-.37,0-.55-.12-1-.24-2-.38-2.94-.07-.53-.17-1.07-.24-1.6,0-.27,0-.54,0-.8s-.24-.39-.52-.12c0-.11,0-.21,0-.23.48-.38.24-.91.3-1.38a6.39,6.39,0,0,1,.29-1l.49,0a2.64,2.64,0,0,1,.79.16c.87.22,1.1,1.06,1.69,1.53a2.3,2.3,0,0,1,.37.33l1.89,2.27c.85,1,1.7,2,2.53,3.07.33.41.62.85.92,1.28s.76,1.09,1.16,1.63c.2.28.43.54.69.85.26-.35.48-.68.73-1s.5-.76,1-.93c.19-.06.31-.34.47-.51.32-.36.66-.71,1-1.08a9,9,0,0,0,.64-1c.25-.33.48-.66.74-1s.59-.64.9-1l0,.23.07,0L149.47,3c.23-.28.31-.68.81-.69.16,0,.31-.3.49-.39l.56,0a1.32,1.32,0,0,1,.46,1.52,5.92,5.92,0,0,0,0,1c-.05.45-.16.89-.2,1.34-.07.84-.1,1.68-.14,2.52s-.06,1.67-.07,2.5,0,1.83,0,2.75c0,.56-.11,1.12-.17,1.69,0,.16,0,.32-.05.49h1.08l1.59,0c.84,0,1.69-.06,2.54-.07H159c1,0,2,0,3.05,0a14,14,0,0,0,2-.24c.22,0,.61,0,.65.12a1.67,1.67,0,0,1,0,.86A1.7,1.7,0,0,1,164.33,17ZM143,20.07l.31-.47-.49-.28.19.76c-.21.06-.29,0-.32-.23s-.07-.29-.1-.44l-.14.05.5,1.32h0Zm11.46,14.69-.23-.06-.05.07.76.72.08-.08-.54-.64.94.32a8,8,0,0,0-.57-.65s-.18.06-.28.07S154.38,34.63,154.44,34.76Zm-14.56,4,.31,1.55.08,0,.19-.49-.05,1.1h.06l.44-1.43-.09,0-.37.39-.25-.18.14-1h-.11l-.12.59c-.09-.18-.16-.32-.24-.46l.23-1.09-.14,0L139.59,39Zm4.83-1-.35.07.06.46h.09l.15-.25-.08.64c.24.1.31,0,.27-.22s-.1-.46-.15-.69L145,38V36.45h-.14c0,.16.05.32.08.48s0,.33-.34.22C144.65,37.38,144.68,37.57,144.71,37.76Zm6-2.1-.62-.92-.07,0,.27.89.42.12.38.28.28-.15.68.46c-.16-.35-.2-.74-.58-.91s-.55-.33-.82-.49a1.28,1.28,0,0,0,.12.32C150.88,35.46,150.77,35.55,150.7,35.66Zm-3.49-2.2-.63-.8-.09.05.71,1.07v-.33l.85,1.06.06,0-.27-.45,1.14.61.13-.16c-.57.06-.49-.51-.89-.68a5.61,5.61,0,0,1-1.07-.84C147.17,33.17,147.19,33.31,147.21,33.46Zm-5.75-9.83a2.48,2.48,0,0,0-.11.81,4,4,0,0,0,.41.89c.11.24.28.2.34,0a2,2,0,0,0,.05-.69c0-.32-.15-.7,0-.94a.74.74,0,0,0,0-.69l-.22-.62-.19.46a4.6,4.6,0,0,1-.31-.45,2.36,2.36,0,0,1-.16-.47c-.39.12-.56.33-.46.51a.59.59,0,0,1,.11.33c0,.26,0,.52-.07.86l.16-.22Zm2.67,14.45-.4.31-.24-.51-.16.79.11,0,.06-.07a4.23,4.23,0,0,0,.45.5,6.51,6.51,0,0,0,.6.43,1.47,1.47,0,0,0-.13-1l-.14.06ZM140,37l-.12,0-.2.5c-.08-.48.3-.92.06-1.39l-.34,1.25-.1,0-.11-.35c-.13.28,0,1.12.19,1.11l0-.31.36.22Zm-9.67-13.32.52,0v-.07l-.16,0,.32-.3.37.19-.3.43c.56.29.48-.36.82-.53-.39-.12-.72-.23-1.05-.32a.18.18,0,0,0-.17.05C130.52,23.28,130.42,23.45,130.28,23.68ZM144.59,34.6l.14-.32c.45.62.45.62.68.59l0-.47h-.09v.2h0l-.17-.68L145,34v.52h-.05l-.08-.46c-.42.12-.22-.28-.34-.42-.34.56-.34.56-.16.82l.08-.37Zm-10.25-4.85c-.66-.29-.77.29-1.12.59l.48.07-.3.28.86-.18v-.05l-.41-.09.43-.4-.06,0-.43.15,0-.1Zm4.89,6.57c.52-.45.32-.93.1-1.51l-.17.66-.12,0v-.49c-.38.42,0,.74.1,1.11l.18-.45.09,0Zm-2.84-21.26v-.13l-.51-.32a1.73,1.73,0,0,0,.19-.15c.07-.08.22-.21.2-.25s-.19-.12-.24,0l-.14,0c-.11,0-.22,0-.39-.07.12.25.29.45.25.58-.12.38.12.45.28.48Zm-4.53,9.25h-.11c.06.32.23.43.6.24l-.35-.06c.33-.26.33-.25.77-.17a1.58,1.58,0,0,0,.28,0c-.15-.27-.61,0-.61-.48l-.53-.13ZM133,31.93v-.11a.84.84,0,0,0-1.06.72l1.41-.29v-.1l-1,0v-.1Zm19.49-5.87v.06a2.71,2.71,0,0,0,.74.11c.42-.05.84-.17,1.26-.26l.27-.07-1.56-.08v.08l.35.09v.07ZM157,21c-.41.17-.85.17-1.09.59.17,0,.33-.13.45-.09C156.73,21.6,156.91,21.44,157,21Zm-17.74-6.83c-.15.57,0,.73.52.7a1.25,1.25,0,0,0-.08.32s.05.12.09.13.15-.05.15-.08c0-.31-.08-.61-.13-.92h-.1v.35l-.45-.17Zm-6.15,7.42a5,5,0,0,0-.44-.59,4.19,4.19,0,0,0-.59-.42l-.08.12a6,6,0,0,1,.58.54C132.89,21.65,132.88,21.66,133.07,21.59Zm11.36,13.77.53.4.08,0-.14-.61h-.07l-.08.32-.15-.4-.37,0,0,.41Zm-.05-12.28.16.07.66-1.49-.13-.05Zm9.74,10.35-.13-.28.4,0-.38-.25-.69.25.49.39.05-.06-.17-.27Zm-23,.58-.23.9C131.41,34.93,131.43,34.89,131.09,34Zm24.79-10.13c.67.38,1,0,1.38-.39-.38-.16-.47.17-.63.39Zm-10.57.53L145,25.78A1.31,1.31,0,0,0,145.31,24.41Zm-6.88,10.53.07,0c-.05-.32-.1-.63-.17-.94,0,0-.18,0-.26,0s-.07.16,0,.22C138.15,34.44,138.3,34.69,138.43,34.94Zm-.13-4.49.27-.66-.58-.28Zm-2.09-11-.06,0-.14-.23c.09.74.14.78.62.51l-.45-.59Zm-2,6.52v-.08l-.43-.16.46,0,0-.39-.28,0-.33.62Zm15.19,8.65c-.12.37.3,1,.56.9Zm-15.78-.17a3.19,3.19,0,0,1,.13-.33.93.93,0,0,1,.16-.18l-.22-.34c-.25.12-.31.24-.28.6C133.39,34.28,133.49,34.35,133.6,34.47Zm.27-9.64,0-.18-.75-.09c.12.21.19.45.27.45A1.54,1.54,0,0,0,133.87,24.83ZM136,20.39l.47.59c.13-.61.13-.61-.18-.86l.05.36Zm-1.28.57,1,.89C135.49,21.49,135.38,21,134.75,21Zm1.54-9.44.7.85A.72.72,0,0,0,136.29,11.52Zm-.09,4.77-.53.31c.24.32.47.15.73,0Zm-.89,12.55c-.53-.2-.81-.09-.95.29Zm3.39,3.47-.32,1.33.16,0C138.46,33.22,139,32.89,138.7,32.31Zm-7.21.67a2.36,2.36,0,0,1,.69,0c.31.07.3.1.33-.22C132.18,32.77,131.76,32.55,131.49,33Zm6.91-4.11.44-.53-.52-.26Zm13.45-8.29c-.48-.17-.15-.39-.08-.65l-.59.24C151.47,20.24,151.3,20.78,151.85,20.58Zm.24,9c-.35-.27-.39-.26-.69.07l.36.19ZM132.21,25l.7.15,0-.11-.23-.09.27-.14C132.61,24.55,132.41,24.7,132.21,25Zm17.92-4.32-.21-.5c-.34.44-.34.44-.17.63ZM145,31.53c-.31.14-.39.34-.25.63l.36-.11Zm.64-10.24c.36-.33.11-.61.06-.92C145.22,20.66,145.65,21,145.6,21.29Zm-7.36,10.52.23.79,0,0c0-.12.07-.24.1-.36C138.72,31.79,138.72,31.79,138.24,31.81Zm17.37,4.72-.05.11.54.68v-.58Zm-17.84-8.79c-.33-.06-.63-.13-.62-.59l-.29.23C137.15,27.58,137.32,28,137.77,27.74Zm-1.57,5.11.26.4c.37-.19.18-.42,0-.69Zm15.72-2.67-.07.1.53.46.21-.54-.42,0,0,.09Zm-17,3.65c.36-.17.29-.42.23-.69C134.61,33.2,134.91,33.54,134.94,33.83Zm17.73-13.22v0l.33-.08,0,.25.29-.07-.11-.51-.39.05v.06l.26,0Zm-6.19.08-.1-.06a1.6,1.6,0,0,0-.13.51c0,.13.14.25.21.37l.08,0Zm6,10.36c.32.38.52-.16.85,0C153,30.74,153,30.74,152.49,31.05Zm-22.32,4.57.13.06c.12,0,.3,0,.36-.13.24-.35,0-.36-.24-.25S130.25,35.51,130.17,35.62Zm6.05-18c-.06-.39-.29-.46-.58-.23l.29.44.06,0-.13-.33Zm-.51-4.22c0,.37.34.15.5.25l.16-.37Zm.23,4.61-.08.13a4.17,4.17,0,0,0,.46.26s.16-.12.15-.17a1.21,1.21,0,0,0-.17-.35l-.09.26Zm11.64-.09.67-.66-.07-.07C147.62,17.49,147.53,17.59,147.58,17.89Zm3.47,9.49-.72-.49-.05,0,.47.58Zm-9.32-10.31-.09.06.61,1.25.09,0Zm6.59-4.83v.57h.09l.32-.69Zm6.2,13.45.54-.3-.46,0,.37-.23-.59.08ZM156,37.81l-.18,0a.45.45,0,0,0,.32.17,1.28,1.28,0,0,0,.38-.07l-.55-.38-.06.06ZM138.31,14.06l-.56-.76A.62.62,0,0,0,138.31,14.06Zm-5.65,17.42,0,.13c.28-.11.65.05.89-.42Zm3.62-19.23a.55.55,0,0,0-.48.7ZM129,22.45c.17.27.33.49.67.38C129.4,22.85,129.49,22.22,129,22.45Zm5,6.91.06.16.72-.23,0-.13Zm1-3.6-.07-.08-.55.46C134.73,26.17,134.73,26.17,135,25.76Zm-4.44-5.1-.12.16.43.31S131,21,131,21Zm7.91,5.25h-.13l.06.85h.17ZM151,28.85l.56.37.05-.07-.33-.3.24-.07-.08-.23Zm-7.28,8.69.09.49h.07l.11-.29.19.25.06,0,0-.42ZM129.56,21c0,.14-.12.35-.07.39.35.31.21-.34.47-.26Zm29.44.45c-.4-.19-.21.33-.46.34l.28.26Zm-26.85,13.1c-.22.16-.56,0-.61.42C131.75,34.83,132.14,35.11,132.15,34.57ZM144.73,21.8l-.14-.05-.29.72.15.05Zm-9-10.6.11,0c.07-.09.2-.21.18-.26s-.17-.2-.27-.29l-.1.06Zm2.66,3.16h.17c0-.23.29-.47-.1-.73Zm6.43,18.43-.05-.39c-.25.18-.47.29-.32.55ZM147.92,14l.27.48.14-.6Z"/><path class="cls-2" d="M141.46,23.63l-.45-.21-.16.22c0-.34.07-.6.07-.86a.59.59,0,0,0-.11-.33c-.1-.18.07-.39.46-.51a2.36,2.36,0,0,0,.16.47,4.6,4.6,0,0,0,.31.45l.19-.46.22.62a.74.74,0,0,1,0,.69c-.13.24,0,.62,0,.94a2,2,0,0,1-.05.69c-.06.19-.23.23-.34,0a4,4,0,0,1-.41-.89A2.48,2.48,0,0,1,141.46,23.63Z"/><path class="cls-2" d="M144.13,38.08l.15.55.14-.06a1.47,1.47,0,0,1,.13,1,6.51,6.51,0,0,1-.6-.43,4.23,4.23,0,0,1-.45-.5l-.06.07-.11,0,.16-.79.24.51Z"/><path class="cls-2" d="M147.21,33.46l-.06-.51a5.61,5.61,0,0,0,1.07.84c.4.17.32.74.89.68l-.13.16L147.84,34l.27.45-.06,0-.85-1.06Z"/><path class="cls-2" d="M150.7,35.66c.07-.11.18-.2.06-.36a1.28,1.28,0,0,1-.12-.32c.27.16.53.35.82.49s.42.56.58.91l-.68-.46-.28.15-.38-.28Z"/><path class="cls-2" d="M140,37l-.21,1-.36-.22,0,.31c-.17,0-.32-.83-.19-1.11l.11.35.1,0,.34-1.25c.24.47-.14.91-.06,1.39l.2-.5Z"/><path class="cls-2" d="M130.28,23.68c.14-.23.24-.4.36-.56a.18.18,0,0,1,.17-.05c.33.09.66.2,1.05.32-.34.17-.26.82-.82.53l.3-.43L131,23.3l-.32.3.16,0v.07Z"/><path class="cls-2" d="M144.59,34.6l-.15-.54-.08.37c-.18-.26-.18-.26.16-.82.12.14-.08.54.34.42l.08.46H145V34l.08,0,.17.68h0v-.2h.09l0,.47c-.23,0-.23,0-.68-.59Z"/><path class="cls-2" d="M134.34,29.75l-.6.22,0,.1.43-.15.06,0-.43.4.41.09v.05l-.86.18.3-.28-.48-.07C133.57,30,133.68,29.46,134.34,29.75Z"/><path class="cls-2" d="M139.23,36.32l.18-.69-.09,0-.18.45c-.11-.37-.48-.69-.1-1.11v.49l.12,0,.17-.66C139.55,35.39,139.75,35.87,139.23,36.32Z"/><path class="cls-2" d="M136.39,15.06l-.36.14c-.16,0-.4-.1-.28-.48,0-.13-.13-.33-.25-.58.17,0,.28,0,.39.07l.14,0c.05-.16.15-.2.24,0s-.13.17-.2.25a1.73,1.73,0,0,1-.19.15l.51.32Z"/><path class="cls-2" d="M131.86,24.31l0-.63.53.13c0,.47.46.21.61.48a1.58,1.58,0,0,1-.28,0c-.44-.08-.44-.09-.77.17l.35.06c-.37.19-.54.08-.6-.24Z"/><path class="cls-2" d="M133,31.93l-.62.16v.1l1,0v.1l-1.41.29a.84.84,0,0,1,1.06-.72Z"/><path class="cls-2" d="M152.52,26.06h1.06V26l-.35-.09v-.08l1.56.08-.27.07c-.42.09-.84.21-1.26.26a2.71,2.71,0,0,1-.74-.11Z"/><path class="cls-2" d="M144.71,37.76l-.09-.6c.3.11.39,0,.34-.22s-.05-.32-.08-.48H145V38l-.32-.22Z"/><path class="cls-2" d="M139.22,14.17v.34l.45.17v-.35h.1c0,.31.1.61.13.92,0,0-.1.09-.15.08s-.1-.09-.09-.13a1.25,1.25,0,0,1,.08-.32C139.2,14.9,139.07,14.74,139.22,14.17Z"/><path class="cls-2" d="M133.07,21.59c-.19.07-.18.06-.53-.35a6,6,0,0,0-.58-.54l.08-.12a4.19,4.19,0,0,1,.59.42A5,5,0,0,1,133.07,21.59Z"/><path class="cls-2" d="M144.43,35.36l-.16.1,0-.41.37,0,.15.4.08-.32h.07l.14.61-.08,0Z"/><path class="cls-2" d="M154.44,34.76c-.06-.13-.1-.24.11-.25s.25-.11.28-.07a8,8,0,0,1,.57.65l-.94-.32Z"/><path class="cls-2" d="M144.38,23.08l.69-1.47.13.05-.66,1.49Z"/><path class="cls-2" d="M154.12,33.43l-.43-.2.17.27-.05.06-.49-.39.69-.25.38.25-.4,0Z"/><path class="cls-2" d="M144.7,37.76c.05.23.11.46.15.69s0,.32-.27.22l.08-.64-.15.25h-.09l-.06-.46.35-.07Z"/><path class="cls-2" d="M131.09,34c.34.88.32.92-.23.9Z"/><path class="cls-2" d="M145.31,24.41a1.31,1.31,0,0,1-.32,1.37Z"/><path class="cls-2" d="M138.43,34.94c-.13-.25-.28-.5-.4-.76,0-.06,0-.22,0-.22s.26,0,.26,0c.07.31.12.62.17.94Z"/><path class="cls-2" d="M138.3,30.45l-.31-.94.58.28Z"/><path class="cls-2" d="M136.21,19.47l0-.28.45.59c-.48.27-.53.23-.62-.51l.14.23Z"/><path class="cls-2" d="M134.19,26l-.53-.09.33-.62.28,0,0,.39-.46,0,.43.16Z"/><path class="cls-2" d="M149.38,34.64l.56.9C149.68,35.59,149.26,35,149.38,34.64Z"/><path class="cls-2" d="M139.88,38.74l-.29.21.37-1.33.14,0c-.08.36-.15.72-.23,1.09Z"/><path class="cls-2" d="M133.6,34.47c-.11-.12-.21-.19-.21-.25,0-.36,0-.48.28-.6l.22.34a.93.93,0,0,0-.16.18A3.19,3.19,0,0,0,133.6,34.47Z"/><path class="cls-2" d="M143,20.07v.7h0l-.5-1.32.14-.05c0,.15.08.29.1.44s.11.29.32.23Z"/><path class="cls-2" d="M133.87,24.83a1.54,1.54,0,0,1-.52.18c-.08,0-.15-.24-.27-.45l.75.09Z"/><path class="cls-2" d="M136,20.39l.34.09-.05-.36c.31.25.31.25.18.86Z"/><path class="cls-2" d="M134.75,21c.63,0,.74.53,1,.89Z"/><path class="cls-2" d="M136.29,11.52a.72.72,0,0,1,.7.85Z"/><path class="cls-2" d="M136.2,16.29l.2.29c-.26.17-.49.34-.73,0Z"/><path class="cls-2" d="M135.31,28.84l-.95.29C134.5,28.75,134.78,28.64,135.31,28.84Z"/><path class="cls-2" d="M138.7,32.31c.3.58-.24.91-.16,1.37l-.16,0Z"/><path class="cls-2" d="M131.49,33c.27-.43.69-.21,1-.26,0,.32,0,.29-.33.22A2.36,2.36,0,0,0,131.49,33Z"/><path class="cls-2" d="M138.4,28.87l-.08-.79.52.26Z"/><path class="cls-2" d="M150.7,35.66v.13l-.42-.12-.27-.89.07,0Z"/><path class="cls-2" d="M151.85,20.58c-.55.2-.38-.34-.67-.41l.59-.24C151.7,20.19,151.37,20.41,151.85,20.58Z"/><path class="cls-2" d="M152.09,29.54l-.33.26-.36-.19C151.7,29.28,151.74,29.27,152.09,29.54Z"/><path class="cls-2" d="M132.21,25c.2-.27.4-.42.76-.19l-.27.14.23.09,0,.11Z"/><path class="cls-2" d="M150.13,20.65l-.38.13c-.17-.19-.17-.19.17-.63Z"/><path class="cls-2" d="M145,31.53l.11.52-.36.11C144.57,31.87,144.65,31.67,145,31.53Z"/><path class="cls-2" d="M145.6,21.29c.05-.33-.38-.63.06-.92C145.71,20.68,146,21,145.6,21.29Z"/><path class="cls-2" d="M138.24,31.81c.48,0,.48,0,.36.41,0,.12-.07.24-.1.36l0,0Z"/><path class="cls-2" d="M137.77,27.74c-.45.27-.62-.16-.91-.36l.29-.23C137.14,27.61,137.44,27.68,137.77,27.74Z"/><path class="cls-2" d="M136.2,32.85l.31-.29c.13.27.32.5,0,.69Z"/><path class="cls-2" d="M151.92,30.18l.27.15,0-.09.42,0-.21.54-.53-.46Z"/><path class="cls-2" d="M134.94,33.83c0-.29-.33-.63.23-.69C135.23,33.41,135.3,33.66,134.94,33.83Z"/><path class="cls-2" d="M152.67,20.61l.34-.21-.26,0v-.06l.39-.05.11.51-.29.07,0-.25-.33.08Z"/><path class="cls-2" d="M146.48,20.69l.06.8-.08,0c-.07-.12-.21-.24-.21-.37a1.6,1.6,0,0,1,.13-.51Z"/><path class="cls-2" d="M152.49,31.05c.54-.31.54-.31.85,0C153,30.89,152.81,31.43,152.49,31.05Z"/><path class="cls-2" d="M130.17,35.62c.08-.11.14-.27.25-.32s.48-.1.24.25c-.06.09-.24.09-.36.13Z"/><path class="cls-2" d="M136.22,17.59l-.36-.16.13.33-.06,0-.29-.44C135.93,17.13,136.16,17.2,136.22,17.59Z"/><path class="cls-2" d="M135.71,13.37l.66-.12-.16.37C136.05,13.52,135.74,13.74,135.71,13.37Z"/><path class="cls-2" d="M135.94,18l.27.13.09-.26a1.21,1.21,0,0,1,.17.35c0,.05-.13.18-.15.17a4.17,4.17,0,0,1-.46-.26Z"/><path class="cls-2" d="M147.58,17.89c-.05-.3,0-.4.6-.73l.07.07Z"/><path class="cls-2" d="M143,20.08l-.19-.76.49.28-.31.47Z"/><path class="cls-2" d="M151.05,27.38l-.3.13-.47-.58.05,0Z"/><path class="cls-2" d="M154.44,34.76h0l.54.64-.08.08-.76-.72.05-.07Z"/><path class="cls-2" d="M141.73,17.07l.61,1.27-.09,0-.61-1.25Z"/><path class="cls-2" d="M147.2,33.45v.33l-.71-1.07.09-.05.63.8Z"/><path class="cls-2" d="M148.32,12.24l.41-.11-.32.69h-.09Z"/><path class="cls-2" d="M154.52,25.69l-.14-.48.59-.08-.37.23.46,0Z"/><path class="cls-2" d="M138.31,14.06a.62.62,0,0,1-.56-.76Z"/><path class="cls-2" d="M132.66,31.48l.93-.29c-.24.47-.61.31-.89.42Z"/><path class="cls-2" d="M136.28,12.25l-.48.7A.55.55,0,0,1,136.28,12.25Z"/><path class="cls-2" d="M129,22.45c.45-.23.36.4.67.38C129.37,22.94,129.21,22.72,129,22.45Z"/><path class="cls-2" d="M134,29.36l.74-.2,0,.13-.72.23Z"/><path class="cls-2" d="M135,25.76c-.29.41-.29.41-.62.38l.55-.46Z"/><path class="cls-2" d="M130.58,20.66,131,21c-.05.06-.13.18-.14.18l-.43-.31Z"/><path class="cls-2" d="M138.49,25.91l.1.85h-.17l-.06-.85Z"/><path class="cls-2" d="M151,28.85l.44-.3.08.23-.24.07.33.3-.05.07Z"/><path class="cls-2" d="M143.76,37.54h.48l0,.42-.06,0-.19-.25-.11.29h-.07Z"/><path class="cls-2" d="M129.56,21l.4.13c-.26-.08-.12.57-.47.26C129.44,21.37,129.53,21.16,129.56,21Z"/><path class="cls-2" d="M132.15,34.57c0,.54-.4.26-.61.42C131.59,34.54,131.93,34.73,132.15,34.57Z"/><path class="cls-2" d="M144.73,21.8l-.28.72-.15-.05.29-.72Z"/><path class="cls-2" d="M135.71,11.2l-.08-.47.1-.06c.1.09.23.17.27.29s-.11.17-.18.26Z"/><path class="cls-2" d="M138.37,14.36l.07-.72c.39.26.09.5.1.73Z"/><path class="cls-2" d="M144.8,32.79l-.37.16c-.15-.26.07-.37.32-.55Z"/><path class="cls-2" d="M147.92,14l.41-.12-.14.6Z"/><path class="cls-3" d="M104.76,17c.72.22.58.92,0,1.52a1.24,1.24,0,0,1-.5,1.82l-1.49,1a.13.13,0,0,1-.09,0c-.06.18-.07.4-.17.48-.34.28-.71.5-1.07.75s-.57.36-.84.57c-.56.43-1.12.85-1.65,1.3-.69.6-1.32,1.28-2,1.84a13,13,0,0,1-1.63.94l-.37.18c.4.39.8.75,1.17,1.14a17,17,0,0,1,1.39,1.56c.43.6.75,1.28,1.13,1.92.26.43.54.84.77,1.28.56,1,1.1,2.09,1.65,3.13.19.35.41.69.6,1a.5.5,0,0,1-.1.68c-.07.06,0,.26,0,.37s.22.4.27.61c.09.41-.19.65-.59.55a.53.53,0,0,1-.18-.05,2,2,0,0,0-1.34-.17,5.58,5.58,0,0,1-.66,0,4,4,0,0,0-.08.48c0,.49-.12.39-.57.51-.76.2-1.1-.39-1.63-.64-.74-.36-1.5-.69-2.27-1s-1.7-.57-2.49-1a5.1,5.1,0,0,0-1.29-.33,4.81,4.81,0,0,1-.77-.35,9.32,9.32,0,0,1-1.66-.86l-.16-.07a.47.47,0,0,0-.07.17c0,.57,0,1.15,0,1.72a5,5,0,0,1-.54,2,11,11,0,0,1-.85,1.68c-.84,1.41-1.71,2.81-2.55,4.22-.19.32-.32.68-.52,1s-.54.72-.8,1.07a1.86,1.86,0,0,0-.29.42c-.1.29-.21.59-.54.67s-.58-.28-.67-.67a26.23,26.23,0,0,0-.92-3.37c-.47-1.29-.91-2.58-1.39-3.86a9.67,9.67,0,0,0-.5-.89A7.77,7.77,0,0,1,78,39.6a13.71,13.71,0,0,1-.47-1.41c-.14-.49-.36-.63-.83-.42-.88.37-1.75.78-2.63,1.14-1.23.49-2.47.94-3.71,1.4-.91.34-1.81.7-2.73,1a7.59,7.59,0,0,1-1.35.32.92.92,0,0,1-1-.46c-.11-.24.09-.63.17-1-.25-.37-.22-.61.07-1.07.48-.75.92-1.52,1.36-2.3.05-.08,0-.25,0-.36s-.16-.2-.21-.31-.24-.41.05-.61a.64.64,0,0,0,.23-.44c0-.26.26-.33.39-.49s.31-.55.49-.81c.43-.66.89-1.3,1.31-2,.56-.9,1.11-1.81,1.69-2.78-.61-.26-1.2-.49-1.77-.77-.77-.37-1.54-.75-2.28-1.17-1.65-.94-3.29-1.91-4.93-2.86-.6-.35-1.19-.71-1.78-1.07s-.52-1,.08-1.37c.32-.2.3-.34.09-.56l-.27-.31c-.35-.36-.35-.65.06-1a2.94,2.94,0,0,1,.78-.42c.47-.17,1-.29,1.43-.43.1,0,.25-.09.25-.14,0-.42.35-.53.63-.61a2.64,2.64,0,0,1,.89,0c.21,0,.41.09.63.09a2.89,2.89,0,0,0-1.26-1.35c0-.13.23-.25-.16-.37s-.55-.6-.8-.94c0,0,0-.19.08-.23a1.64,1.64,0,0,1,1.48-.39,7.21,7.21,0,0,0,1.47.28c.91.08,1.84.07,2.75.17s1.75.27,2.62.38c.62.08,1.25.11,1.88.17a1.9,1.9,0,0,1,.34.13v-.52l.22.09a4.79,4.79,0,0,1-.09-1.11c.06-.35-.16-.75.16-1.06,0,0,0-.12,0-.18a17.7,17.7,0,0,0-.06-1.93c-.11-1-.3-1.92-.45-2.88,0-.18.06-.37,0-.55-.12-1-.25-2-.38-2.94-.07-.53-.17-1.07-.24-1.6,0-.27,0-.54,0-.8S72,2.4,71.7,2.67c0-.11,0-.21,0-.23.48-.38.24-.91.3-1.38a6.39,6.39,0,0,1,.29-1l.49,0a2.64,2.64,0,0,1,.79.16c.87.22,1.1,1.06,1.69,1.53a1.88,1.88,0,0,1,.36.33c.64.75,1.27,1.51,1.9,2.27.85,1,1.7,2,2.53,3.07.33.41.62.85.92,1.28s.76,1.09,1.15,1.63c.21.28.44.54.7.85.26-.35.48-.68.72-1s.51-.76,1-.93c.2-.06.32-.34.48-.51.32-.36.66-.71,1-1.08a9,9,0,0,0,.64-1c.25-.33.48-.66.74-1s.58-.64.9-1l0,.23.07,0L89.9,3c.22-.28.31-.68.81-.69.15,0,.31-.3.49-.39l.55,0a1.32,1.32,0,0,1,.47,1.52,5.92,5.92,0,0,0,0,1c-.05.45-.17.89-.2,1.34-.07.84-.1,1.68-.14,2.52s-.06,1.67-.07,2.5,0,1.83,0,2.75c0,.56-.1,1.12-.16,1.69,0,.16,0,.32,0,.49h1.07c.54,0,1.07,0,1.6,0,.84,0,1.69-.06,2.53-.07h2.67c1,0,2,0,3,0a14.18,14.18,0,0,0,2-.24c.22,0,.61,0,.65.12a1.67,1.67,0,0,1,0,.86C105.05,16.61,104.88,16.76,104.76,17ZM83.41,20.07l.31-.47-.5-.28.2.76c-.21.06-.29,0-.32-.23s-.07-.29-.1-.44l-.14.05.49,1.32h.06ZM94.87,34.76l-.24-.06,0,.07.77.72.08-.08-.55-.64,1,.32a8,8,0,0,0-.57-.65s-.18.06-.28.07S94.8,34.63,94.87,34.76Zm-14.56,4,.31,1.55.08,0,.19-.49,0,1.1h.06l.43-1.43-.08,0-.37.39-.25-.18.14-1h-.11l-.12.59-.24-.46.23-1.09-.14,0L80,39Zm4.83-1-.35.07.06.46h.09l.15-.25-.08.64c.23.1.31,0,.27-.22s-.1-.46-.15-.69l.32.22V36.45h-.14c0,.16,0,.32.08.48s0,.33-.34.22C85.08,37.38,85.11,37.57,85.14,37.76Zm6-2.1-.63-.92-.06,0,.27.89.41.12.39.28.28-.15.68.46c-.16-.35-.2-.74-.58-.91s-.55-.33-.83-.49a2,2,0,0,0,.13.32C91.31,35.46,91.2,35.55,91.13,35.66Zm-3.49-2.2-.63-.8-.09.05.71,1.07v-.33l.85,1.06,0,0L88.27,34l1.14.61.13-.16c-.57.06-.49-.51-.89-.68A5.65,5.65,0,0,1,87.57,33Zm-5.76-9.83a2.77,2.77,0,0,0-.1.81,4,4,0,0,0,.41.89c.11.24.28.2.34,0a2.25,2.25,0,0,0,0-.69c0-.32-.15-.7,0-.94a.71.71,0,0,0,0-.69c-.08-.19-.14-.39-.22-.62l-.19.46a3.33,3.33,0,0,1-.31-.45,2.36,2.36,0,0,1-.16-.47c-.39.12-.56.33-.46.51a.68.68,0,0,1,.11.33,7.64,7.64,0,0,1-.08.86l.17-.22Zm2.68,14.45-.41.31-.23-.51-.17.79.12,0,.06-.07a4.23,4.23,0,0,0,.45.5,6.36,6.36,0,0,0,.59.43,1.36,1.36,0,0,0-.13-1l-.13.06ZM80.38,37l-.13,0-.19.5c-.08-.48.3-.92.06-1.39l-.34,1.25-.1,0L79.57,37c-.13.28,0,1.12.19,1.11l0-.31.36.22ZM70.7,23.68l.52,0v-.07l-.15,0,.32-.3.37.19-.3.43c.56.29.48-.36.82-.53-.4-.12-.72-.23-1.06-.32a.17.17,0,0,0-.16.05C71,23.28,70.85,23.45,70.7,23.68ZM85,34.6l.14-.32c.45.62.45.62.68.59l0-.47h-.09v.2h0l-.17-.68-.08,0v.52h0L85.29,34c-.42.12-.22-.28-.35-.42-.33.56-.33.56-.16.82l.09-.37ZM74.77,29.75c-.66-.29-.77.29-1.12.59l.48.07-.3.28.86-.18v-.05l-.41-.09.43-.4-.06,0-.43.15,0-.1Zm4.89,6.57c.52-.45.32-.93.1-1.51l-.18.66-.12,0v-.49c-.38.42,0,.74.1,1.11l.19-.45.09,0ZM76.81,15.06v-.13l-.51-.32.19-.15c.07-.08.21-.21.19-.25s-.18-.12-.23,0l-.14,0c-.11,0-.22,0-.39-.07.11.25.29.45.25.58-.12.38.12.45.28.48Zm-4.52,9.25h-.11c.06.32.23.43.6.24l-.35-.06c.33-.26.33-.25.77-.17a1.58,1.58,0,0,0,.28,0c-.15-.27-.61,0-.61-.48l-.53-.13Zm1.17,7.62v-.11a.84.84,0,0,0-1.06.72l1.41-.29v-.1l-1,0v-.1ZM93,26.06v.06a2.84,2.84,0,0,0,.75.11c.42-.05.84-.17,1.25-.26l.28-.07-1.56-.08v.08L94,26v.07ZM97.39,21c-.41.17-.86.17-1.09.59.17,0,.33-.13.45-.09C97.16,21.6,97.33,21.44,97.39,21ZM79.65,14.17c-.16.57,0,.73.52.7a1.28,1.28,0,0,0-.09.32.19.19,0,0,0,.1.13s.15-.05.15-.08c0-.31-.08-.61-.13-.92h-.1v.35l-.45-.17ZM73.5,21.59a5,5,0,0,0-.44-.59,4.19,4.19,0,0,0-.59-.42l-.08.12a7.41,7.41,0,0,1,.58.54C73.32,21.65,73.31,21.66,73.5,21.59ZM84.86,35.36l.53.4.08,0-.14-.61h-.07l-.08.32L85,35l-.37,0,0,.41Zm0-12.28.16.07.66-1.49-.13-.05Zm9.74,10.35-.14-.28.4,0-.38-.25-.68.25.49.39.05-.06-.17-.27Zm-23,.58-.24.9C71.84,34.93,71.86,34.89,71.52,34ZM96.31,23.88c.67.38,1,0,1.38-.39-.39-.16-.48.17-.63.39Zm-10.57.53-.32,1.37A1.31,1.31,0,0,0,85.74,24.41ZM78.86,34.94l.07,0c-.05-.32-.1-.63-.17-.94,0,0-.18,0-.27,0s-.06.16,0,.22C78.58,34.44,78.73,34.69,78.86,34.94Zm-.14-4.49.28-.66-.58-.28Zm-2.08-11-.07,0-.13-.23c.09.74.13.78.62.51l-.45-.59Zm-2,6.52v-.08l-.44-.16.47,0,0-.39-.29,0-.32.62Zm15.19,8.65c-.12.37.3,1,.56.9ZM74,34.47a1.29,1.29,0,0,1,.13-.33.93.93,0,0,1,.16-.18l-.22-.34c-.25.12-.31.24-.28.6C73.82,34.28,73.92,34.35,74,34.47Zm.27-9.64,0-.18-.75-.09c.12.21.19.45.27.45A1.61,1.61,0,0,0,74.3,24.83Zm2.16-4.44.47.59c.13-.61.13-.61-.18-.86l0,.36ZM75.18,21l1,.89C75.92,21.49,75.81,21,75.18,21Zm1.53-9.44.71.85A.72.72,0,0,0,76.71,11.52Zm-.08,4.77-.53.31c.24.32.46.15.72,0Zm-.9,12.55c-.52-.2-.8-.09-.94.29Zm3.4,3.47-.32,1.33.16,0C78.88,33.22,79.43,32.89,79.13,32.31ZM71.92,33a2.31,2.31,0,0,1,.68,0c.32.07.31.1.34-.22C72.6,32.77,72.19,32.55,71.92,33Zm6.91-4.11.43-.53-.51-.26Zm13.45-8.29c-.48-.17-.15-.39-.08-.65l-.59.24C91.9,20.24,91.72,20.78,92.28,20.58Zm.24,9c-.36-.27-.39-.26-.69.07l.36.19ZM72.64,25l.69.15,0-.11-.23-.09.26-.14C73,24.55,72.84,24.7,72.64,25Zm17.92-4.32-.21-.5c-.34.44-.34.44-.17.63ZM85.38,31.53a.41.41,0,0,0-.24.63l.36-.11ZM86,21.29c.36-.33.11-.61.06-.92C85.65,20.66,86.07,21,86,21.29ZM78.67,31.81l.23.79,0,0c0-.12.06-.24.1-.36C79.15,31.79,79.15,31.79,78.67,31.81ZM96,36.53l-.05.11.54.68v-.58ZM78.19,27.74c-.32-.06-.62-.13-.62-.59l-.28.23C77.58,27.58,77.74,28,78.19,27.74Zm-1.56,5.11.26.4c.37-.19.18-.42,0-.69Zm15.72-2.67-.07.1.52.46L93,30.2l-.42,0,0,.09Zm-17,3.65c.36-.17.29-.42.23-.69C75,33.2,75.34,33.54,75.37,33.83ZM93.1,20.61v0l.33-.08,0,.25.29-.07-.11-.51-.4.05v.06l.26,0Zm-6.19.08-.1-.06a1.94,1.94,0,0,0-.14.51c0,.13.14.25.22.37l.07,0Zm6,10.36c.32.38.52-.16.85,0C93.45,30.74,93.45,30.74,92.92,31.05ZM70.6,35.62l.13.06c.12,0,.3,0,.36-.13.24-.35,0-.36-.24-.25S70.68,35.51,70.6,35.62Zm6.05-18c-.07-.39-.29-.46-.58-.23l.29.44.06,0-.13-.33Zm-.52-4.22c0,.37.35.15.51.25l.16-.37ZM76.37,18l-.09.13c.16.09.31.19.47.26s.16-.12.15-.17a1.05,1.05,0,0,0-.18-.35l-.08.26ZM88,17.89l.68-.66-.07-.07C88.05,17.49,88,17.59,88,17.89Zm3.48,9.49-.72-.49-.05,0,.46.58ZM82.16,17.07l-.09.06.61,1.25.09,0Zm6.59-4.83v.57h.08l.33-.69ZM95,25.69l.53-.3-.45,0,.37-.23-.59.08ZM96.4,37.81l-.18,0a.45.45,0,0,0,.32.17,1.23,1.23,0,0,0,.37-.07l-.54-.38-.06.06ZM78.74,14.06l-.56-.76A.62.62,0,0,0,78.74,14.06ZM73.09,31.48l0,.13c.28-.11.65.05.89-.42Zm3.62-19.23a.55.55,0,0,0-.48.7Zm-7.24,10.2c.17.27.33.49.67.38C69.83,22.85,69.92,22.22,69.47,22.45Zm5,6.91.07.16.72-.23,0-.13Zm1-3.6-.07-.08-.55.46C75.15,26.17,75.15,26.17,75.45,25.76ZM71,20.66l-.12.16.43.31.14-.18Zm7.91,5.25h-.13l0,.85H79Zm12.55,2.94.56.37,0-.07-.34-.3.24-.07-.08-.23Zm-7.28,8.69.09.49h.07l.11-.29.18.25.07,0,0-.42ZM70,21c0,.14-.11.35-.06.39.35.31.21-.34.47-.26Zm29.45.45c-.41-.19-.21.33-.46.34l.28.26ZM72.57,34.57c-.21.16-.55,0-.6.42C72.17,34.83,72.57,35.11,72.57,34.57ZM85.16,21.8,85,21.75l-.28.72.15.05Zm-9-10.6.11,0c.06-.09.2-.21.18-.26s-.18-.2-.27-.29l-.1.06Zm2.66,3.16H79c0-.23.29-.47-.1-.73Zm6.42,18.43,0-.39c-.25.18-.47.29-.32.55ZM88.34,14l.27.48.15-.6Z"/><path class="cls-2" d="M81.88,23.63l-.44-.21-.17.22a7.64,7.64,0,0,0,.08-.86.68.68,0,0,0-.11-.33c-.1-.18.07-.39.46-.51a2.36,2.36,0,0,0,.16.47,3.33,3.33,0,0,0,.31.45l.19-.46c.08.23.14.43.22.62a.71.71,0,0,1,0,.69c-.12.24,0,.62,0,.94a2.25,2.25,0,0,1,0,.69c-.06.19-.23.23-.34,0a4,4,0,0,1-.41-.89A2.77,2.77,0,0,1,81.88,23.63Z"/><path class="cls-2" d="M84.56,38.08l.15.55.13-.06a1.36,1.36,0,0,1,.13,1,6.36,6.36,0,0,1-.59-.43,4.23,4.23,0,0,1-.45-.5l-.06.07-.12,0,.17-.79.23.51Z"/><path class="cls-2" d="M87.64,33.46,87.57,33a5.65,5.65,0,0,0,1.08.84c.4.17.32.74.89.68l-.13.16L88.27,34l.26.45,0,0-.85-1.06Z"/><path class="cls-2" d="M91.13,35.66c.07-.11.18-.2.06-.36a2,2,0,0,1-.13-.32c.28.16.54.35.83.49s.42.56.58.91l-.68-.46-.28.15-.39-.28Z"/><path class="cls-2" d="M80.38,37l-.21,1-.36-.22,0,.31c-.17,0-.32-.83-.19-1.11l.11.35.1,0,.34-1.25c.24.47-.14.91-.06,1.39l.19-.5Z"/><path class="cls-2" d="M70.7,23.68c.15-.23.25-.4.37-.56a.17.17,0,0,1,.16-.05c.34.09.66.2,1.06.32-.34.17-.26.82-.82.53l.3-.43-.37-.19-.32.3.15,0v.07Z"/><path class="cls-2" d="M85,34.6l-.15-.54-.09.37c-.17-.26-.17-.26.16-.82.13.14-.07.54.35.42l.08.46h0V34l.08,0,.17.68h0v-.2h.09l0,.47c-.23,0-.23,0-.68-.59Z"/><path class="cls-2" d="M74.77,29.75l-.6.22,0,.1.43-.15.06,0-.43.4.41.09v.05l-.86.18.3-.28-.48-.07C74,30,74.11,29.46,74.77,29.75Z"/><path class="cls-2" d="M79.66,36.32l.18-.69-.09,0-.19.45c-.11-.37-.48-.69-.1-1.11v.49l.12,0,.18-.66C80,35.39,80.18,35.87,79.66,36.32Z"/><path class="cls-2" d="M76.81,15.06l-.35.14c-.16,0-.4-.1-.28-.48,0-.13-.14-.33-.25-.58.17,0,.28,0,.39.07l.14,0c.05-.16.15-.2.23,0s-.12.17-.19.25l-.19.15.51.32Z"/><path class="cls-2" d="M72.29,24.31l0-.63.53.13c0,.47.46.21.61.48a1.58,1.58,0,0,1-.28,0c-.44-.08-.44-.09-.77.17l.35.06c-.37.19-.54.08-.6-.24Z"/><path class="cls-2" d="M73.46,31.93l-.63.16v.1l1,0v.1l-1.41.29a.84.84,0,0,1,1.06-.72Z"/><path class="cls-2" d="M93,26.06h1V26l-.35-.09v-.08l1.56.08-.28.07c-.41.09-.83.21-1.25.26a2.84,2.84,0,0,1-.75-.11Z"/><path class="cls-2" d="M85.14,37.76l-.09-.6c.3.11.39,0,.34-.22s0-.32-.08-.48h.14V38l-.32-.22Z"/><path class="cls-2" d="M97.39,21c-.06.44-.23.6-.64.5-.12,0-.28.08-.45.09C96.53,21.17,97,21.17,97.39,21Z"/><path class="cls-2" d="M79.65,14.17v.34l.45.17v-.35h.1c0,.31.1.61.13.92,0,0-.1.09-.15.08a.19.19,0,0,1-.1-.13,1.28,1.28,0,0,1,.09-.32C79.63,14.9,79.49,14.74,79.65,14.17Z"/><path class="cls-2" d="M73.5,21.59c-.19.07-.18.06-.53-.35a7.41,7.41,0,0,0-.58-.54l.08-.12a4.19,4.19,0,0,1,.59.42A5,5,0,0,1,73.5,21.59Z"/><path class="cls-2" d="M84.86,35.36l-.16.1,0-.41L85,35l.15.4.08-.32h.07l.14.61-.08,0Z"/><path class="cls-2" d="M94.87,34.76c-.07-.13-.1-.24.11-.25s.25-.11.28-.07a8,8,0,0,1,.57.65l-1-.32Z"/><path class="cls-2" d="M84.81,23.08l.69-1.47.13.05L85,23.15Z"/><path class="cls-2" d="M94.55,33.43l-.43-.2.17.27-.05.06-.49-.39.68-.25.38.25-.4,0Z"/><path class="cls-2" d="M85.13,37.76c.05.23.11.46.15.69s0,.32-.27.22l.08-.64-.15.25h-.09l-.06-.46.35-.07Z"/><path class="cls-2" d="M71.52,34c.34.88.32.92-.24.9Z"/><path class="cls-2" d="M96.31,23.88h.75c.15-.22.24-.55.63-.39C97.33,23.87,97,24.26,96.31,23.88Z"/><path class="cls-2" d="M85.74,24.41a1.31,1.31,0,0,1-.32,1.37Z"/><path class="cls-2" d="M78.86,34.94c-.13-.25-.28-.5-.4-.76,0-.06,0-.22,0-.22s.26,0,.27,0c.07.31.12.62.17.94Z"/><path class="cls-2" d="M78.72,30.45l-.3-.94.58.28Z"/><path class="cls-2" d="M76.64,19.47l0-.28.45.59c-.49.27-.53.23-.62-.51l.13.23Z"/><path class="cls-2" d="M74.62,26l-.53-.09.32-.62.29,0,0,.39-.47,0,.44.16Z"/><path class="cls-2" d="M89.81,34.64l.56.9C90.11,35.59,89.69,35,89.81,34.64Z"/><path class="cls-2" d="M80.31,38.74,80,39l.37-1.33.14,0c-.08.36-.15.72-.23,1.09Z"/><path class="cls-2" d="M74,34.47c-.11-.12-.21-.19-.21-.25,0-.36,0-.48.28-.6l.22.34a.93.93,0,0,0-.16.18A1.29,1.29,0,0,0,74,34.47Z"/><path class="cls-2" d="M83.41,20.07v.7h-.06l-.49-1.32.14-.05c0,.15.08.29.1.44s.11.29.32.23Z"/><path class="cls-2" d="M74.3,24.83a1.61,1.61,0,0,1-.52.18c-.08,0-.15-.24-.27-.45l.75.09Z"/><path class="cls-2" d="M76.46,20.39l.34.09,0-.36c.31.25.31.25.18.86Z"/><path class="cls-2" d="M75.18,21c.63,0,.74.53,1,.89Z"/><path class="cls-2" d="M76.63,16.29l.19.29c-.26.17-.48.34-.72,0Z"/><path class="cls-2" d="M75.73,28.84l-.94.29C74.93,28.75,75.21,28.64,75.73,28.84Z"/><path class="cls-2" d="M79.13,32.31c.3.58-.25.91-.16,1.37l-.16,0Z"/><path class="cls-2" d="M71.92,33c.27-.43.68-.21,1-.26,0,.32,0,.29-.34.22A2.31,2.31,0,0,0,71.92,33Z"/><path class="cls-2" d="M78.83,28.87l-.08-.79.51.26Z"/><path class="cls-2" d="M91.13,35.66v.13l-.41-.12-.27-.89.06,0Z"/><path class="cls-2" d="M92.28,20.58c-.56.2-.38-.34-.67-.41l.59-.24C92.13,20.19,91.8,20.41,92.28,20.58Z"/><path class="cls-2" d="M92.52,29.54l-.33.26-.36-.19C92.13,29.28,92.16,29.27,92.52,29.54Z"/><path class="cls-2" d="M72.64,25c.2-.27.4-.42.75-.19l-.26.14.23.09,0,.11Z"/><path class="cls-2" d="M90.56,20.65l-.38.13c-.17-.19-.17-.19.17-.63Z"/><path class="cls-2" d="M85.38,31.53l.12.52-.36.11A.41.41,0,0,1,85.38,31.53Z"/><path class="cls-2" d="M86,21.29c0-.33-.38-.63.06-.92C86.14,20.68,86.39,21,86,21.29Z"/><path class="cls-2" d="M78.67,31.81c.48,0,.48,0,.36.41,0,.12-.07.24-.1.36l0,0Z"/><path class="cls-2" d="M96,36.53l.49.21v.58L96,36.64Z"/><path class="cls-2" d="M78.19,27.74c-.45.27-.61-.16-.9-.36l.28-.23C77.57,27.61,77.87,27.68,78.19,27.74Z"/><path class="cls-2" d="M76.63,32.85l.3-.29c.14.27.33.5,0,.69Z"/><path class="cls-2" d="M92.35,30.18l.27.15,0-.09.42,0-.22.54-.52-.46Z"/><path class="cls-2" d="M75.37,33.83c0-.29-.34-.63.23-.69C75.66,33.41,75.73,33.66,75.37,33.83Z"/><path class="cls-2" d="M93.1,20.61l.34-.21-.26,0v-.06l.4-.05.11.51-.29.07,0-.25-.33.08Z"/><path class="cls-2" d="M86.91,20.69l0,.8-.07,0c-.08-.12-.21-.24-.22-.37a1.94,1.94,0,0,1,.14-.51Z"/><path class="cls-2" d="M92.92,31.05c.53-.31.53-.31.85,0C93.44,30.89,93.24,31.43,92.92,31.05Z"/><path class="cls-2" d="M70.6,35.62c.08-.11.14-.27.25-.32s.48-.1.24.25c-.06.09-.24.09-.36.13Z"/><path class="cls-2" d="M76.65,17.59l-.36-.16.13.33-.06,0-.29-.44C76.36,17.13,76.58,17.2,76.65,17.59Z"/><path class="cls-2" d="M76.13,13.37l.67-.12-.16.37C76.48,13.52,76.17,13.74,76.13,13.37Z"/><path class="cls-2" d="M76.37,18l.27.13.08-.26a1.05,1.05,0,0,1,.18.35c0,.05-.13.18-.15.17s-.31-.17-.47-.26Z"/><path class="cls-2" d="M88,17.89c0-.3,0-.4.61-.73l.07.07Z"/><path class="cls-2" d="M83.42,20.08l-.2-.76.5.28-.31.47Z"/><path class="cls-2" d="M91.48,27.38l-.31.13-.46-.58.05,0Z"/><path class="cls-2" d="M94.87,34.76h0l.55.64-.08.08-.77-.72,0-.07Z"/><path class="cls-2" d="M82.16,17.07l.61,1.27-.09,0-.61-1.25Z"/><path class="cls-2" d="M87.63,33.45v.33l-.71-1.07.09-.05.63.8Z"/><path class="cls-2" d="M95,25.69l-.14-.48.59-.08-.37.23.45,0Z"/><path class="cls-2" d="M96.4,37.81l-.09-.18.06-.06.54.38a1.23,1.23,0,0,1-.37.07.45.45,0,0,1-.32-.17Z"/><path class="cls-2" d="M78.74,14.06a.62.62,0,0,1-.56-.76Z"/><path class="cls-2" d="M73.09,31.48l.93-.29c-.24.47-.61.31-.89.42Z"/><path class="cls-2" d="M69.47,22.45c.45-.23.36.4.67.38C69.8,22.94,69.64,22.72,69.47,22.45Z"/><path class="cls-2" d="M74.43,29.36l.75-.2,0,.13-.72.23Z"/><path class="cls-2" d="M75.45,25.76c-.3.41-.3.41-.62.38l.55-.46Z"/><path class="cls-2" d="M71,20.66l.45.29-.14.18-.43-.31Z"/><path class="cls-2" d="M78.92,25.91l.09.85h-.17l0-.85Z"/><path class="cls-2" d="M91.47,28.85l.43-.3.08.23-.24.07.34.3,0,.07Z"/><path class="cls-2" d="M84.19,37.54h.47l0,.42-.07,0-.18-.25-.11.29h-.07Z"/><path class="cls-2" d="M70,21l.41.13c-.26-.08-.12.57-.47.26C69.87,21.37,70,21.16,70,21Z"/><path class="cls-2" d="M72.57,34.57c0,.54-.4.26-.6.42C72,34.54,72.36,34.73,72.57,34.57Z"/><path class="cls-2" d="M85.16,21.8l-.28.72-.15-.05.28-.72Z"/><path class="cls-2" d="M78.8,14.36l.07-.72c.39.26.09.5.1.73Z"/><path class="cls-2" d="M85.22,32.79l-.36.16c-.15-.26.07-.37.32-.55Z"/><path class="cls-2" d="M88.34,14l.42-.12-.15.6Z"/><path class="cls-4" d="M45.18,17c.72.22.59.92,0,1.52a1.23,1.23,0,0,1-.5,1.82l-1.49,1a.12.12,0,0,1-.09,0c-.06.18-.06.4-.16.48-.34.28-.72.5-1.08.75s-.56.36-.83.57c-.56.43-1.12.85-1.65,1.3-.69.6-1.32,1.28-2,1.84a12.24,12.24,0,0,1-1.62.94l-.37.18c.4.39.8.75,1.17,1.14a15.56,15.56,0,0,1,1.38,1.56c.44.6.76,1.28,1.14,1.92.25.43.54.84.77,1.28.56,1,1.1,2.09,1.65,3.13.19.35.4.69.6,1a.5.5,0,0,1-.1.68c-.07.06,0,.26,0,.37s.22.4.27.61c.09.41-.19.65-.59.55a.48.48,0,0,1-.18-.05,2,2,0,0,0-1.34-.17,5.58,5.58,0,0,1-.66,0c0,.12-.07.3-.09.48,0,.49-.11.39-.56.51-.77.2-1.1-.39-1.63-.64-.74-.36-1.51-.69-2.28-1s-1.69-.57-2.49-1a5,5,0,0,0-1.29-.33,5.15,5.15,0,0,1-.76-.35,9.41,9.41,0,0,1-1.67-.86,1.07,1.07,0,0,0-.15-.07.47.47,0,0,0-.07.17c0,.57,0,1.15,0,1.72a5,5,0,0,1-.54,2,11.09,11.09,0,0,1-.86,1.68c-.83,1.41-1.7,2.81-2.54,4.22-.19.32-.32.68-.52,1s-.54.72-.81,1.07a2.19,2.19,0,0,0-.28.42c-.1.29-.21.59-.54.67s-.59-.28-.67-.67a26.27,26.27,0,0,0-.93-3.37c-.46-1.29-.91-2.58-1.39-3.86a7.71,7.71,0,0,0-.49-.89c-.15-.29-.3-.58-.42-.88A13.65,13.65,0,0,1,18,38.19c-.14-.49-.36-.63-.84-.42-.87.37-1.74.78-2.62,1.14-1.23.49-2.47.94-3.71,1.4-.91.34-1.81.7-2.73,1a7.59,7.59,0,0,1-1.35.32.92.92,0,0,1-1-.46c-.11-.24.09-.63.16-1-.24-.37-.21-.61.08-1.07.48-.75.92-1.52,1.36-2.3.05-.08,0-.25,0-.36s-.16-.2-.22-.31-.23-.41.06-.61a.68.68,0,0,0,.23-.44c0-.26.26-.33.39-.49s.31-.55.48-.81c.43-.66.9-1.3,1.31-2,.57-.9,1.11-1.81,1.7-2.78-.61-.26-1.2-.49-1.77-.77-.77-.37-1.54-.75-2.28-1.17-1.65-.94-3.29-1.91-4.93-2.86-.6-.35-1.19-.71-1.78-1.07s-.52-1,.08-1.37c.32-.2.3-.34.09-.56l-.27-.31C0,20.56,0,20.27.42,20a2.8,2.8,0,0,1,.78-.42c.47-.17,1-.29,1.43-.43.09,0,.25-.09.25-.14,0-.42.35-.53.63-.61a2.63,2.63,0,0,1,.89,0,6,6,0,0,0,.63.09,2.86,2.86,0,0,0-1.27-1.35c0-.13.24-.25-.16-.37s-.54-.6-.79-.94c0,0,0-.19.07-.23a1.65,1.65,0,0,1,1.48-.39,7.44,7.44,0,0,0,1.48.28c.91.08,1.83.07,2.75.17s1.74.27,2.62.38c.62.08,1.25.11,1.87.17a1.71,1.71,0,0,1,.35.13v-.52l.22.09a4.3,4.3,0,0,1-.09-1.11c.06-.35-.16-.75.16-1.06,0,0,0-.12,0-.18a17.7,17.7,0,0,0-.06-1.93c-.11-1-.3-1.92-.45-2.88,0-.18.06-.37,0-.55-.11-1-.24-2-.37-2.94-.07-.53-.18-1.07-.24-1.6,0-.27,0-.54,0-.8s-.24-.39-.52-.12c0-.11,0-.21,0-.23.47-.38.24-.91.3-1.38a6.39,6.39,0,0,1,.29-1l.48,0a2.71,2.71,0,0,1,.8.16c.87.22,1.09,1.06,1.68,1.53a1.94,1.94,0,0,1,.37.33c.64.75,1.27,1.51,1.9,2.27.85,1,1.7,2,2.53,3.07.33.41.62.85.92,1.28s.76,1.09,1.15,1.63c.21.28.44.54.69.85.26-.35.49-.68.73-1s.51-.76,1-.93c.2-.06.32-.34.48-.51.32-.36.66-.71,1-1.08a10.72,10.72,0,0,0,.64-1c.24-.33.48-.66.74-1s.58-.64.9-1l0,.23.07,0L30.33,3c.22-.28.31-.68.8-.69.16,0,.32-.3.5-.39l.55,0a1.32,1.32,0,0,1,.47,1.52,7,7,0,0,0,0,1c0,.45-.16.89-.19,1.34-.07.84-.1,1.68-.14,2.52s-.06,1.67-.07,2.5,0,1.83,0,2.75c0,.56-.1,1.12-.16,1.69,0,.16,0,.32-.05.49h1.07l1.59,0c.85,0,1.7-.06,2.54-.07h2.67c1,0,2,0,3,0a14.18,14.18,0,0,0,2-.24c.22,0,.61,0,.64.12a1.67,1.67,0,0,1,0,.86A2,2,0,0,1,45.18,17Z"/><path d="M23.84,20.07l.31-.47-.5-.28.2.76c-.21.06-.29,0-.32-.23a3.54,3.54,0,0,0-.11-.44l-.13.05.49,1.32h.06Z"/><path d="M35.3,34.76l-.24-.06-.05.07.77.72.07-.08-.54-.64.95.32c-.17-.2-.36-.44-.57-.65,0,0-.18.06-.28.07S35.23,34.63,35.3,34.76Z"/><path d="M20.74,38.74l.31,1.55.08,0c.06-.16.12-.33.19-.49l-.05,1.1h.05l.44-1.43-.08,0-.37.39-.26-.18.14-1h-.1l-.12.59-.24-.46L21,37.66l-.15,0L20.44,39Z"/><path d="M25.56,37.76l-.34.07.06.46h.09l.15-.25-.08.64c.23.1.31,0,.27-.22s-.1-.46-.16-.69l.33.22V36.45h-.14c0,.16.05.32.08.48s0,.33-.34.22C25.51,37.38,25.54,37.57,25.56,37.76Z"/><path d="M31.55,35.66l-.62-.92-.06,0,.27.89.41.12.38.28.29-.15.67.46c-.15-.35-.2-.74-.58-.91s-.54-.33-.82-.49a1,1,0,0,0,.13.32C31.74,35.46,31.63,35.55,31.55,35.66Z"/><path d="M28.07,33.46l-.63-.8-.09.05.71,1.07v-.33l.85,1.06.05,0L28.7,34l1.13.61.14-.16c-.57.06-.49-.51-.89-.68A5.65,5.65,0,0,1,28,33Z"/><path d="M22.31,23.63a2.77,2.77,0,0,0-.1.81,3.57,3.57,0,0,0,.41.89c.11.24.28.2.34,0a2.25,2.25,0,0,0,.05-.69c0-.32-.16-.7,0-.94A.71.71,0,0,0,23,23c-.08-.19-.14-.39-.22-.62l-.19.46a4.83,4.83,0,0,1-.32-.45,3.23,3.23,0,0,1-.15-.47c-.39.12-.56.33-.46.51a.68.68,0,0,1,.11.33,7.64,7.64,0,0,1-.08.86l.17-.22Z"/><path d="M25,38.08l-.41.31-.24-.51-.16.79.12,0,.05-.07a5.45,5.45,0,0,0,.46.5,6.36,6.36,0,0,0,.59.43,1.36,1.36,0,0,0-.13-1l-.13.06Z"/><path d="M20.81,37l-.13,0-.19.5c-.08-.48.29-.92.06-1.39l-.35,1.25-.09,0L20,37c-.13.28,0,1.12.19,1.11l0-.31.36.22Z"/><path d="M11.13,23.68l.52,0v-.07l-.15,0,.32-.3.37.19-.31.43c.57.29.48-.36.83-.53l-1.06-.32a.16.16,0,0,0-.16.05C11.38,23.28,11.28,23.45,11.13,23.68Z"/><path d="M25.45,34.6l.14-.32c.45.62.45.62.68.59l-.05-.47h-.08v.2h0l-.17-.68-.08,0v.52H25.8L25.71,34c-.41.12-.22-.28-.34-.42-.33.56-.33.56-.16.82l.09-.37Z"/><path d="M15.2,29.75c-.66-.29-.77.29-1.12.59l.48.07-.3.28.86-.18,0-.05-.4-.09.42-.4,0,0-.43.15,0-.1Z"/><path d="M20.09,36.32c.52-.45.32-.93.1-1.51l-.18.66-.12,0v-.49c-.38.42,0,.74.1,1.11l.19-.45.08,0Z"/><path d="M17.24,15.06v-.13l-.51-.32a1.3,1.3,0,0,0,.18-.15c.08-.08.22-.21.2-.25s-.18-.12-.23,0l-.14,0c-.11,0-.23,0-.39-.07.11.25.29.45.25.58-.13.38.12.45.28.48Z"/><path d="M12.72,24.31H12.6c.07.32.23.43.6.24l-.34-.06c.33-.26.33-.25.77-.17a1.58,1.58,0,0,0,.28,0c-.15-.27-.62,0-.61-.48l-.53-.13Z"/><path d="M13.89,31.93v-.11a.85.85,0,0,0-1.07.72l1.42-.29,0-.1-.94,0v-.1Z"/><path d="M33.38,26.06v.06a2.84,2.84,0,0,0,.75.11c.42-.05.83-.17,1.25-.26l.27-.07-1.55-.08v.08l.36.09v.07Z"/><path d="M37.82,21c-.41.17-.86.17-1.09.59.17,0,.33-.13.45-.09C37.59,21.6,37.76,21.44,37.82,21Z"/><path d="M20.07,14.17c-.15.57,0,.73.52.7a1.87,1.87,0,0,0-.08.32.19.19,0,0,0,.1.13c.05,0,.15-.05.15-.08,0-.31-.08-.61-.13-.92h-.1v.35l-.46-.17Z"/><path d="M13.93,21.59a6.46,6.46,0,0,0-.44-.59,4.19,4.19,0,0,0-.59-.42l-.08.12a7.41,7.41,0,0,1,.58.54C13.75,21.65,13.73,21.66,13.93,21.59Z"/><path d="M25.29,35.36l.53.4.08,0-.14-.61h-.08l-.07.32-.16-.4-.36,0,0,.41Z"/><path d="M25.24,23.08l.16.07.65-1.49-.12-.05Z"/><path d="M35,33.43l-.14-.28.4,0-.38-.25-.68.25.49.39,0-.06-.16-.27Z"/><path d="M12,34l-.24.9C12.27,34.93,12.28,34.89,12,34Z"/><path d="M36.73,23.88c.68.38,1,0,1.39-.39-.39-.16-.48.17-.64.39Z"/><path d="M26.17,24.41l-.32,1.37A1.31,1.31,0,0,0,26.17,24.41Z"/><path d="M19.29,34.94l.07,0c-.05-.32-.1-.63-.17-.94,0,0-.18,0-.27,0s-.06.16,0,.22C19,34.44,19.15,34.69,19.29,34.94Z"/><path d="M19.15,30.45l.28-.66-.58-.28Z"/><path d="M17.06,19.47l-.06,0-.13-.23c.08.74.13.78.62.51L17,19.19Z"/><path d="M15.05,26v-.08l-.44-.16.47,0,0-.39-.29,0-.33.62Z"/><path d="M30.24,34.64c-.12.37.3,1,.56.9Z"/><path d="M14.46,34.47a1.29,1.29,0,0,1,.13-.33.93.93,0,0,1,.16-.18l-.23-.34c-.24.12-.3.24-.28.6C14.25,34.28,14.35,34.35,14.46,34.47Z"/><path d="M14.73,24.83l0-.18-.75-.09c.12.21.19.45.26.45A1.59,1.59,0,0,0,14.73,24.83Z"/><path d="M16.89,20.39l.47.59c.13-.61.13-.61-.18-.86l.05.36Z"/><path d="M15.61,21l1,.89C16.35,21.49,16.24,21,15.61,21Z"/><path d="M17.14,11.52l.71.85A.72.72,0,0,0,17.14,11.52Z"/><path d="M17.05,16.29l-.52.31c.24.32.46.15.72,0Z"/><path d="M16.16,28.84c-.52-.2-.81-.09-.95.29Z"/><path d="M19.56,32.31l-.33,1.33.17,0C19.31,33.22,19.85,32.89,19.56,32.31Z"/><path d="M12.35,33a2.31,2.31,0,0,1,.68,0c.31.07.31.1.34-.22C13,32.77,12.62,32.55,12.35,33Z"/><path d="M19.26,28.87l.43-.53-.51-.26Z"/><path d="M32.71,20.58c-.49-.17-.15-.39-.08-.65l-.59.24C32.33,20.24,32.15,20.78,32.71,20.58Z"/><path d="M33,29.54c-.36-.27-.39-.26-.69.07l.35.19Z"/><path d="M13.06,25l.7.15,0-.11-.23-.09.27-.14C13.47,24.55,13.27,24.7,13.06,25Z"/><path d="M31,20.65l-.2-.5c-.34.44-.34.44-.17.63Z"/><path d="M25.81,31.53a.41.41,0,0,0-.24.63l.36-.11Z"/><path d="M26.46,21.29c.36-.33.1-.61.06-.92C26.07,20.66,26.5,21,26.46,21.29Z"/><path d="M19.09,31.81l.24.79s0,0,0,0,.07-.24.11-.36C19.58,31.79,19.57,31.79,19.09,31.81Z"/><path d="M36.46,36.53l0,.11.54.68v-.58Z"/><path d="M18.62,27.74c-.32-.06-.62-.13-.62-.59l-.28.23C18,27.58,18.17,28,18.62,27.74Z"/><path d="M17.06,32.85l.26.4c.37-.19.18-.42,0-.69Z"/><path d="M32.78,30.18l-.07.1.52.46.22-.54-.42,0v.09Z"/><path d="M15.79,33.83c.37-.17.3-.42.24-.69C15.46,33.2,15.77,33.54,15.79,33.83Z"/><path d="M33.52,20.61l0,0,.33-.08,0,.25.29-.07L34,20.24l-.4.05v.06l.26,0Z"/><path d="M27.34,20.69l-.1-.06a1.94,1.94,0,0,0-.14.51c0,.13.14.25.22.37l.07,0Z"/><path d="M33.34,31.05c.33.38.52-.16.86,0C33.88,30.74,33.88,30.74,33.34,31.05Z"/><path d="M11,35.62l.12.06c.13,0,.31,0,.37-.13.23-.35,0-.36-.25-.25C11.17,35.35,11.11,35.51,11,35.62Z"/><path d="M17.08,17.59c-.07-.39-.3-.46-.59-.23l.29.44.06,0-.12-.33Z"/><path d="M16.56,13.37c0,.37.35.15.51.25l.15-.37Z"/><path d="M16.8,18l-.09.13a3.54,3.54,0,0,0,.47.26s.16-.12.15-.17a1.67,1.67,0,0,0-.18-.35l-.08.26Z"/><path d="M28.43,17.89l.68-.66L29,17.16C28.48,17.49,28.38,17.59,28.43,17.89Z"/><path d="M31.91,27.38l-.72-.49-.06,0,.47.58Z"/><path d="M22.59,17.07l-.09.06.61,1.25.09,0Z"/><path d="M29.18,12.24v.57h.08l.33-.69Z"/><path d="M35.38,25.69l.53-.3-.45,0,.37-.23-.59.08Z"/><path d="M36.82,37.81l-.18,0A.49.49,0,0,0,37,38a1.23,1.23,0,0,0,.38-.07l-.54-.38-.06.06Z"/><path d="M19.16,14.06l-.56-.76A.63.63,0,0,0,19.16,14.06Z"/><path d="M13.51,31.48l.05.13c.27-.11.65.05.89-.42Z"/><path d="M17.13,12.25a.54.54,0,0,0-.47.7Z"/><path d="M9.9,22.45c.16.27.32.49.66.38C10.26,22.85,10.35,22.22,9.9,22.45Z"/><path d="M14.86,29.36l.06.16.73-.23,0-.13Z"/><path d="M15.88,25.76l-.07-.08-.56.46C15.58,26.17,15.58,26.17,15.88,25.76Z"/><path d="M11.44,20.66l-.12.16.42.31a2.26,2.26,0,0,0,.15-.18Z"/><path d="M19.35,25.91h-.13l.05.85h.17Z"/><path d="M31.9,28.85l.55.37.06-.07-.34-.3.24-.07-.08-.23Z"/><path d="M24.62,37.54l.09.49h.07l.11-.29.18.25.06,0,0-.42Z"/><path d="M10.41,21c0,.14-.11.35-.06.39.35.31.21-.34.47-.26Z"/><path d="M39.85,21.47c-.4-.19-.2.33-.45.34l.28.26Z"/><path d="M13,34.57c-.21.16-.55,0-.6.42C12.6,34.83,13,35.11,13,34.57Z"/><path d="M25.59,21.8l-.15-.05-.28.72.15.05Z"/><path d="M16.57,11.2l.1,0c.07-.09.21-.21.19-.26s-.18-.2-.27-.29l-.1.06Z"/><path d="M19.23,14.36h.17c0-.23.29-.47-.1-.73Z"/><path d="M25.65,32.79l0-.39c-.25.18-.48.29-.32.55Z"/><path d="M28.77,14l.27.48.15-.6Z"/><path class="cls-2" d="M22.31,23.63l-.44-.21-.17.22a7.64,7.64,0,0,0,.08-.86.68.68,0,0,0-.11-.33c-.1-.18.07-.39.46-.51a3.23,3.23,0,0,0,.15.47,4.83,4.83,0,0,0,.32.45l.19-.46c.08.23.14.43.22.62a.71.71,0,0,1,0,.69c-.13.24,0,.62,0,.94a2.25,2.25,0,0,1-.05.69c-.06.19-.23.23-.34,0a3.57,3.57,0,0,1-.41-.89A2.77,2.77,0,0,1,22.31,23.63Z"/><path class="cls-2" d="M25,38.08l.15.55.13-.06a1.36,1.36,0,0,1,.13,1,6.36,6.36,0,0,1-.59-.43,5.45,5.45,0,0,1-.46-.5l-.05.07-.12,0,.16-.79.24.51Z"/><path class="cls-2" d="M28.07,33.46,28,33a5.65,5.65,0,0,0,1.08.84c.4.17.32.74.89.68l-.14.16L28.7,34l.26.45-.05,0-.85-1.06Z"/><path class="cls-2" d="M31.55,35.66c.08-.11.19-.2.07-.36a1,1,0,0,1-.13-.32c.28.16.54.35.82.49s.43.56.58.91l-.67-.46-.29.15-.38-.28Z"/><path class="cls-2" d="M20.81,37l-.21,1-.36-.22,0,.31c-.17,0-.32-.83-.19-1.11l.11.35.09,0,.35-1.25c.23.47-.14.91-.06,1.39l.19-.5Z"/><path class="cls-2" d="M11.13,23.68c.15-.23.25-.4.37-.56a.16.16,0,0,1,.16-.05l1.06.32c-.35.17-.26.82-.83.53l.31-.43-.37-.19-.32.3.15,0v.07Z"/><path class="cls-2" d="M25.45,34.6l-.15-.54-.09.37c-.17-.26-.17-.26.16-.82.12.14-.07.54.34.42l.09.46h.05V34l.08,0,.17.68h0v-.2h.08l.05.47c-.23,0-.23,0-.68-.59Z"/><path class="cls-2" d="M15.2,29.75l-.6.22,0,.1.43-.15,0,0-.42.4.4.09,0,.05-.86.18.3-.28-.48-.07C14.43,30,14.54,29.46,15.2,29.75Z"/><path class="cls-2" d="M20.09,36.32l.17-.69-.08,0-.19.45c-.11-.37-.48-.69-.1-1.11v.49l.12,0,.18-.66C20.41,35.39,20.61,35.87,20.09,36.32Z"/><path class="cls-2" d="M17.24,15.06l-.35.14c-.16,0-.41-.1-.28-.48,0-.13-.14-.33-.25-.58.16,0,.28,0,.39.07l.14,0c.05-.16.15-.2.23,0s-.12.17-.2.25a1.3,1.3,0,0,1-.18.15l.51.32Z"/><path class="cls-2" d="M12.72,24.31l0-.63.53.13c0,.47.46.21.61.48a1.58,1.58,0,0,1-.28,0c-.44-.08-.44-.09-.77.17l.34.06c-.37.19-.53.08-.6-.24Z"/><path class="cls-2" d="M13.89,31.93l-.63.16v.1l.94,0,0,.1-1.42.29a.85.85,0,0,1,1.07-.72Z"/><path class="cls-2" d="M33.38,26.06h1V26l-.36-.09v-.08l1.55.08-.27.07c-.42.09-.83.21-1.25.26a2.84,2.84,0,0,1-.75-.11Z"/><path class="cls-2" d="M25.56,37.76l-.08-.6c.3.11.39,0,.34-.22s-.06-.32-.08-.48h.14V38l-.33-.22Z"/><path class="cls-2" d="M37.82,21c-.06.44-.23.6-.64.5-.12,0-.28.08-.45.09C37,21.17,37.41,21.17,37.82,21Z"/><path class="cls-2" d="M20.07,14.17v.34l.46.17v-.35h.1c.05.31.09.61.13.92,0,0-.1.09-.15.08a.19.19,0,0,1-.1-.13,1.87,1.87,0,0,1,.08-.32C20.06,14.9,19.92,14.74,20.07,14.17Z"/><path class="cls-2" d="M13.93,21.59c-.2.07-.18.06-.53-.35a7.41,7.41,0,0,0-.58-.54l.08-.12a4.19,4.19,0,0,1,.59.42A6.46,6.46,0,0,1,13.93,21.59Z"/><path class="cls-2" d="M25.29,35.36l-.17.1,0-.41.36,0,.16.4.07-.32h.08l.14.61-.08,0Z"/><path class="cls-2" d="M35.3,34.76c-.07-.13-.1-.24.11-.25s.25-.11.28-.07c.21.21.4.45.57.65l-.95-.32Z"/><path class="cls-2" d="M25.24,23.08l.69-1.47.12.05-.65,1.49Z"/><path class="cls-2" d="M35,33.43l-.43-.2.16.27,0,.06-.49-.39.68-.25.38.25-.4,0Z"/><path class="cls-2" d="M25.55,37.76c.06.23.12.46.16.69s0,.32-.27.22l.08-.64-.15.25h-.09l-.06-.46.34-.07Z"/><path class="cls-2" d="M12,34c.33.88.32.92-.24.9Z"/><path class="cls-2" d="M36.73,23.88h.75c.16-.22.25-.55.64-.39C37.76,23.87,37.41,24.26,36.73,23.88Z"/><path class="cls-2" d="M26.17,24.41a1.31,1.31,0,0,1-.32,1.37Z"/><path class="cls-2" d="M19.29,34.94c-.14-.25-.28-.5-.4-.76,0-.06,0-.22,0-.22s.26,0,.27,0c.07.31.12.62.17.94Z"/><path class="cls-2" d="M19.15,30.45l-.3-.94.58.28Z"/><path class="cls-2" d="M17.06,19.47l0-.28.46.59c-.49.27-.54.23-.62-.51l.13.23Z"/><path class="cls-2" d="M15.05,26l-.54-.09.33-.62.29,0,0,.39-.47,0,.44.16Z"/><path class="cls-2" d="M30.24,34.64l.56.9C30.54,35.59,30.12,35,30.24,34.64Z"/><path class="cls-2" d="M20.74,38.74l-.3.21.37-1.33.15,0c-.08.36-.16.72-.23,1.09Z"/><path class="cls-2" d="M14.46,34.47c-.11-.12-.21-.19-.22-.25,0-.36,0-.48.28-.6l.23.34a.93.93,0,0,0-.16.18A1.29,1.29,0,0,0,14.46,34.47Z"/><path class="cls-2" d="M23.84,20.07v.7h-.06l-.49-1.32.13-.05a3.54,3.54,0,0,1,.11.44c0,.19.11.29.32.23Z"/><path class="cls-2" d="M14.73,24.83a1.59,1.59,0,0,1-.53.18c-.07,0-.14-.24-.26-.45l.75.09Z"/><path class="cls-2" d="M16.89,20.39l.34.09-.05-.36c.31.25.31.25.18.86Z"/><path class="cls-2" d="M15.61,21c.63,0,.74.53,1,.89Z"/><path class="cls-2" d="M17.14,11.52a.72.72,0,0,1,.71.85Z"/><path class="cls-2" d="M17.05,16.29l.2.29c-.26.17-.48.34-.72,0Z"/><path class="cls-2" d="M16.16,28.84l-.95.29C15.35,28.75,15.64,28.64,16.16,28.84Z"/><path class="cls-2" d="M19.56,32.31c.29.58-.25.91-.16,1.37l-.17,0Z"/><path class="cls-2" d="M12.35,33c.27-.43.68-.21,1-.26,0,.32,0,.29-.34.22A2.31,2.31,0,0,0,12.35,33Z"/><path class="cls-2" d="M19.26,28.87l-.08-.79.51.26Z"/><path class="cls-2" d="M31.55,35.66v.13l-.41-.12-.27-.89.06,0Z"/><path class="cls-2" d="M32.71,20.58c-.56.2-.38-.34-.67-.41l.59-.24C32.56,20.19,32.22,20.41,32.71,20.58Z"/><path class="cls-2" d="M33,29.54l-.34.26-.35-.19C32.56,29.28,32.59,29.27,33,29.54Z"/><path class="cls-2" d="M13.06,25c.21-.27.41-.42.76-.19l-.27.14.23.09,0,.11Z"/><path class="cls-2" d="M31,20.65l-.37.13c-.17-.19-.17-.19.17-.63Z"/><path class="cls-2" d="M25.81,31.53l.12.52-.36.11A.41.41,0,0,1,25.81,31.53Z"/><path class="cls-2" d="M26.46,21.29c0-.33-.39-.63.06-.92C26.56,20.68,26.82,21,26.46,21.29Z"/><path class="cls-2" d="M19.09,31.81c.48,0,.49,0,.37.41,0,.12-.07.24-.11.36s0,0,0,0Z"/><path class="cls-2" d="M36.46,36.53l.5.21v.58l-.54-.68Z"/><path class="cls-2" d="M18.62,27.74c-.45.27-.61-.16-.9-.36l.28-.23C18,27.61,18.3,27.68,18.62,27.74Z"/><path class="cls-2" d="M17.06,32.85l.3-.29c.14.27.33.5,0,.69Z"/><path class="cls-2" d="M32.78,30.18l.26.15v-.09l.42,0-.22.54-.52-.46Z"/><path class="cls-2" d="M15.79,33.83c0-.29-.33-.63.24-.69C16.09,33.41,16.16,33.66,15.79,33.83Z"/><path class="cls-2" d="M33.52,20.61l.35-.21-.26,0v-.06l.4-.05.11.51-.29.07,0-.25-.33.08Z"/><path class="cls-2" d="M27.34,20.69l.05.8-.07,0c-.08-.12-.21-.24-.22-.37a1.94,1.94,0,0,1,.14-.51Z"/><path class="cls-2" d="M33.34,31.05c.54-.31.54-.31.86,0C33.86,30.89,33.67,31.43,33.34,31.05Z"/><path class="cls-2" d="M11,35.62c.08-.11.14-.27.24-.32.25-.11.48-.1.25.25-.06.09-.24.09-.37.13Z"/><path class="cls-2" d="M17.08,17.59l-.36-.16.12.33-.06,0-.29-.44C16.78,17.13,17,17.2,17.08,17.59Z"/><path class="cls-2" d="M16.56,13.37l.66-.12-.15.37C16.91,13.52,16.6,13.74,16.56,13.37Z"/><path class="cls-2" d="M16.8,18l.27.13.08-.26a1.67,1.67,0,0,1,.18.35c0,.05-.13.18-.15.17a3.54,3.54,0,0,1-.47-.26Z"/><path class="cls-2" d="M28.43,17.89c-.05-.3.05-.4.61-.73l.07.07Z"/><path class="cls-2" d="M23.85,20.08l-.2-.76.5.28c-.12.17-.21.32-.31.47Z"/><path class="cls-2" d="M31.91,27.38l-.31.13-.47-.58.06,0Z"/><path class="cls-2" d="M35.3,34.76h0l.54.64-.07.08L35,34.77l.05-.07Z"/><path class="cls-2" d="M22.59,17.07l.61,1.27-.09,0-.61-1.25Z"/><path class="cls-2" d="M28.06,33.45v.33l-.71-1.07.09-.05.63.8Z"/><path class="cls-2" d="M29.18,12.24l.41-.11-.33.69h-.08Z"/><path class="cls-2" d="M35.38,25.69l-.14-.48.59-.08-.37.23.45,0Z"/><path class="cls-2" d="M36.82,37.81l-.08-.18.06-.06.54.38A1.23,1.23,0,0,1,37,38a.49.49,0,0,1-.32-.17Z"/><path class="cls-2" d="M19.16,14.06a.63.63,0,0,1-.56-.76Z"/><path class="cls-2" d="M13.51,31.48l.94-.29c-.24.47-.62.31-.89.42Z"/><path class="cls-2" d="M17.13,12.25l-.47.7A.54.54,0,0,1,17.13,12.25Z"/><path class="cls-2" d="M9.9,22.45c.45-.23.36.4.66.38C10.22,22.94,10.06,22.72,9.9,22.45Z"/><path class="cls-2" d="M14.86,29.36l.75-.2,0,.13-.73.23Z"/><path class="cls-2" d="M15.88,25.76c-.3.41-.3.41-.63.38l.56-.46Z"/><path class="cls-2" d="M11.44,20.66l.45.29a2.26,2.26,0,0,1-.15.18l-.42-.31Z"/><path class="cls-2" d="M19.35,25.91l.09.85h-.17l-.05-.85Z"/><path class="cls-2" d="M31.9,28.85l.43-.3.08.23-.24.07.34.3-.06.07Z"/><path class="cls-2" d="M24.62,37.54h.47l0,.42-.06,0-.18-.25-.11.29h-.07Z"/><path class="cls-2" d="M10.41,21l.41.13c-.26-.08-.12.57-.47.26C10.3,21.37,10.39,21.16,10.41,21Z"/><path class="cls-2" d="M39.85,21.47l-.17.6-.28-.26C39.65,21.8,39.45,21.28,39.85,21.47Z"/><path class="cls-2" d="M13,34.57c0,.54-.4.26-.6.42C12.45,34.54,12.79,34.73,13,34.57Z"/><path class="cls-2" d="M25.59,21.8l-.28.72-.15-.05.28-.72Z"/><path class="cls-2" d="M16.57,11.2l-.08-.47.1-.06c.09.09.23.17.27.29s-.12.17-.19.26Z"/><path class="cls-2" d="M19.23,14.36l.07-.72c.39.26.09.5.1.73Z"/><path class="cls-2" d="M25.65,32.79l-.36.16c-.16-.26.07-.37.32-.55Z"/><path class="cls-2" d="M28.77,14l.42-.12-.15.6Z"/></g></g></svg>