<svg xmlns="http://www.w3.org/2000/svg" viewBox="0 0 265.16 130.32"><defs><style>.cls-1{fill: transparent;}</style></defs><g id="Capa_2" data-name="Capa 2"><g id="Capa_1-2" data-name="Capa 1"><path d="M261.47,32l-1.16-.33c.06-.61.1-1.21,1.2-1.37.34-.05.65-.59.81-1a7,7,0,0,0,.32-1.42l-.3-.09c-.21.52-.25,1.15-.65,1.52a3.42,3.42,0,0,1-1.76.52c1.61-1.35,2.28-2.66,1.75-3.78l-1.1,2.06-.34-.11.2-.85-.27-.13c-.15.18-.32.35-.45.54a5.7,5.7,0,0,0-.3.54l-.57-.41-1.15.67-.1-1.05-.31-.11-.81,1.58,4.09-.46,0,.39c-.35,0-.84-.05-1,.11-.68.6-1,1.57-2.34,1.44a4.05,4.05,0,0,0-.15.55l-1.8.12a2.12,2.12,0,0,0-.19-.52.45.45,0,0,0-.36-.19.49.49,0,0,0-.34.23c-.3.89-.57,1.78-.85,2.67h-.3a5.79,5.79,0,0,1,.11-1c.16-.5.43-1,.6-1.49s.52-1-.63-1.35c-.73-.21-1.17-1.14-1.8-1.83-.42,1-.89,2.2-1.35,3.36l-.33-.09.56-2.55-.35-.08-1.27,2.74-.41-1.29-1.21,1.3c.27-.79-.12-1.78,1-2.42l.26.78c.58-.88,1.41-1.68.76-3l-.87,1.94-.86-1-1.06,2.69-.31-.05.27-1.52-.25-.16-1.3,1.64c.15-.86.29-1.64.43-2.43l-.4-.08-1.09,2-.78-.8-.7.83v-1.7l-.28-.08-1.06,1.74-.26-.08c.26-.81.52-1.63.77-2.44l-.37-.21-.64,1.12-.34-.19-.41-.86-1,1.08c.07-.79.11-1.3.16-1.81l-.29-.11-1.23,2c-.38-.37-.88-.68-1.07-1.08a2.13,2.13,0,0,1,0-1.3,7,7,0,0,1,.48-1.24l-.38-.12-1.18,2.41-.42-.08.44-1.87-.15-.06L233.81,26l-.26-.12.45-1.77-.22-.09-.85.8c-1.21-.61-1.37.21-1.55.71h-1.81c.13-.64.28-1.34.42-2l-.23,0-.92,1.41-1.13-.7-.58,1-.34-.13c.39-.89.77-1.77,1.15-2.66l-.42-.18-1,1.14-.3-.12c.17-.7.33-1.41.5-2.12l-.23-.08L225,24l-.22,0v-1.8l-.92.9c-.11-.51-.2-1-.35-1.67l-.77,1.05-.66-.65-.69.54-.24-.07.3-1.63-1,.7-.27-.08c.23-.81.46-1.62.7-2.43l-.28-.1-1.76,3c-.63-1.25,1.2-2,.6-3.07l-1.09.8-.2-.11c.18-.57.36-1.14.55-1.71l-.24-.07-1.86,3-.32-.08V19.35l-1.65.19-.18-.22-1.43,2.17-.21-.07.3-1.3-.26-.09-1.12,1.11-.25-.11c.63-1.37,1.27-2.74,1.9-4.12l-.46-.16L211,19.54l.87-2.7c-.73.15-1.48-.62-2.1.36-.83,1.32-.91,1.3-.39,1.83l.88-1.15c.9.27.66.59.25,1a14.55,14.55,0,0,0-1.12,1.58l.51.28,1-1.05-.39,1.89-1.85-.33-.18-1.18-1,.62.76-2.12c-.87,0-1.09,1.52-2.13.37a5.4,5.4,0,0,0-.6.71c-.31.55-.41,1.23-1.55.92-.26-.06-.75.48-1.38.92l.66-1.72-1.86-.51-.53.72-.68-.72-.76.57c-.5-.43-1.06-.66-1.49.16l-.93-.7-.76,1.41-.35-.11.68-1.95-.25-.17-.6.35a9.5,9.5,0,0,0-1.13-.13c-.27.81-1.25.62-1.76.64s-1.24-.49-1.86-.77c-.13-.07-.25-.15-.46-.29l-1.06,1.11c-.33-.34-.94-.71-.88-1,.31-1.22-1-.89-1.57-1.18-.09,0-.49.25-.65.45a21.09,21.09,0,0,1-1.72,2.06,2.68,2.68,0,0,0-2.73-1.4,11,11,0,0,1-2.73-.67l-3.14,1.19-.23-.33c.11-.1.31-.22.29-.32-.05-.36-.14-1-.28-1a13.59,13.59,0,0,0-2.63.06,14.34,14.34,0,0,1-2.55.5c-.62,0-1.18-.66-1.9-1.1.91-.53,1.74-1,2.48-1.47.24-.16.26-.55.39-.84-.42-.1-.94-.38-1.23-.26-1.56.62-3.07,1.32-4.58,2-.61.28-1.26,0-1.08-.51s-.17-1-.65-1.41a14.93,14.93,0,0,0-2.66-1.86c-.47-.21-1.33.15-2.24.28l.61-2c-1.26-.61-2.63-1.28-4-.31l-.95-1.52c-.44.46-.89.92-1.32,1.38-.06.07,0,.2-.06.29l0,0h-2.23c.14-.92-.15-1.63-1.59-1.61-.24,0-.49-.42-.58-.5a16.54,16.54,0,0,0-2.16.72,7,7,0,0,0-1.29,1.07l-2.17-2.05c-.78.33-1.53,1.46-1.07,2,.25.31.85.42,1.45.7l-1.42,1.59-.31-.14.39-1.07-.15-.08-1.17,1.14-.29-.19a3,3,0,0,0,.5-.82c.22-1.07.38-2.14.54-3.22,0-.14-.14-.31-.23-.45a3.65,3.65,0,0,0-.34-.4l-1.09,1,0,0-1.44-.84,1.2-1.71c-2.06-.06-2.84.59-3,2.22l-2.33-.74,1.1-1.6-.37-.18L133.75,7.1l-.51-.75-1.38,1.27-.26-.71c-1.54.79-2.82,1.48-4.15,2.11a2.57,2.57,0,0,1-2.82-1,7.16,7.16,0,0,0-2.38-1.6,5.07,5.07,0,0,0-1.51-.2l-.18-.69-.46-.3L118.79,7l-.37-.27.62-.86-.32.1L117.4,3.54l-2.26.52c-.88-1.29-1-1.31-2.62-.2A2.54,2.54,0,0,1,109.27,3a10.87,10.87,0,0,0-.91-1c.08-.5.21-1.25.33-2h156V25.81c-.43.75-.86,1.5-1.25,2.27,0,.07.2.31.33.33a.56.56,0,0,0,.46-.21,10,10,0,0,0,.46-1v5.56a3.3,3.3,0,0,0-2.75,2.17l-.3-.16.6-1.88h-2.42l-.08-.2a8.87,8.87,0,0,0,.92-.25c.31-.12.59-.29.88-.43.27.15.54.31.8.48.16-.22.44-.42.47-.64.05-.56.3-.77,1-.63.15,0,.36-.13.4-.14l-1.22-1.32a1.85,1.85,0,0,1-2.18,1.16l.13.36,1.73.18ZM126.06,4.38l1.65,1.13.19-.15.21.89,1.12-1.56c-.63-.22-1.18-.39-1.71-.59S126.39,3.48,126.06,4.38Zm4.5,2.33,2-2.28L130.8,4C130.72,4.8,130.65,5.64,130.56,6.71Zm129.16,18-.28-.09-.88,2.24C259.19,26.85,259.19,26.85,259.72,24.69ZM214,17.28l-.72,1.52C214.33,18.58,214.52,18,214,17.28Zm17.18-2.93-.46-.13-.91,1.8.54.17C230.59,15.58,230.87,15,231.14,14.35Z"/><path d="M264.64,64.92l-1.37-.36c-.55-.38-1-.67-1.41-.92-.05,0-.34.25-.51.39l.87.48c-1.18.82-2,.72-2.86-.39l-.57,1.5,3.22-.24c-.39.54-1,1,0,1.25l-1.42.58,1.55.33c-2.35.5-2.69.89-3.4-.58-1.47,0-1.47,0-1.84-2.25l1.38-.35L257.21,64l1.06-1.9-1.1-.47c1.05-.74.71-1.47-.1-2.18l.83-.52-2.77-.31c.23.58.38,1,.52,1.34l-.33.11c-.45-.89-.91-1.77-1.37-2.66,1.25-.19,1.31-.29.67-1.19l2-.31-1.4-.76.77-.27c0-.45-.07-.87-.11-1.43l-.71-.33L259,51.7l0-.34L257.39,51v-.22l2-.64-2.07-.4,0-.16,2.51-.22,0-.24-1.55-.27c1.9-.05,2.91-1.36,4.32-2.07h-2.18c.47-1,1.65-.43,2.64-.9l-2.51-.57c.43-.76,1.91.4,2.05-.85l-2.26.19c1.49-1,2.58-2,4.3-2ZM261,56.6l-.25-.25-1.87,1.24.17.2,1.3-.1Zm1.82,6.23v.25a2.77,2.77,0,0,0,.93.08c.21-.06.5-.37.47-.53a2.9,2.9,0,0,0-.47-.88l-.29.13.24.62Z"/><path d="M264.64,40.1a2.83,2.83,0,0,0-1,.09c-.6.29-1.91-.57-1.94.8,0,.14-1,.31-1.61.37a6.66,6.66,0,0,1-1.34-.09l2.77-1.93-.51-.4,1.56-.62.23.22-.72,1.09c.92-.09,1.87.37,2.19-.77,0-.13.25-.23.39-.34h0Z"/><path d="M264.64,38.52h0l-2-.67L264.1,37l-2-.18,0-.15,2-.4c-.39-.61-.77-1.25.58-1.31Z"/><path class="cls-1" d="M264.64,27.2a10,10,0,0,1-.46,1,.56.56,0,0,1-.46.21c-.13,0-.36-.26-.33-.33.39-.77.82-1.52,1.25-2.27Z"/><path d="M264.64,41.29l-2.58-.13a3.42,3.42,0,0,1,2.58-.46Z"/><path d="M264.64,42.29l-1.87.16c.23-1,1.32-.43,1.87-.76Z"/><path class="cls-1" d="M211,19.73l-1,1.05-.51-.28a14.55,14.55,0,0,1,1.12-1.58c.41-.45.65-.77-.25-1L209.39,19c-.52-.53-.44-.51.39-1.83.62-1,1.37-.21,2.1-.36l-.87,2.7Z"/><path d="M258.67,30.66l-.34.75,1.27.09-.82,1.41a9.08,9.08,0,0,1-.83-1,1.28,1.28,0,0,1-.21-.89c.06-.21.47-.34.72-.51Z"/><path d="M255,53.85l-1.16,1.29-.82-1.2Z"/><path d="M248.73,33.34c.69-.6-.08-1.7,1.42-2.3l-1.1,2.41Z"/><path d="M256.33,68.45l1.75-.87.24.3-1.65,1Z"/><path d="M214,21.72c.26-.55.51-1.11.78-1.69C215.33,20.59,215.19,21,214,21.72Z"/><path d="M259,33.81a11.19,11.19,0,0,1-1.18.25c-.38,0-.76,0-1.12,0C257,33.52,257.9,33.35,259,33.81Z"/><path class="cls-1" d="M261.47,32l1.13-.58-1.73-.18-.13-.36a1.85,1.85,0,0,0,2.18-1.16l1.22,1.32s-.25.17-.4.14c-.68-.14-.93.07-1,.63,0,.22-.31.42-.47.64-.26-.17-.53-.33-.8-.48Z"/><path class="cls-1" d="M259.72,24.69c-.53,2.16-.53,2.16-1.16,2.15l.88-2.24Z"/><path class="cls-1" d="M214,17.28c.56.76.37,1.3-.72,1.52Z"/><path class="cls-1" d="M231.14,14.35c-.27.61-.55,1.23-.83,1.84l-.54-.17.91-1.8Z"/><path class="cls-1" d="M261,56.6l-.65,1.09-1.3.1-.17-.2,1.87-1.24Z"/><path class="cls-1" d="M262.84,62.83l.88-.33-.24-.62.29-.13a2.9,2.9,0,0,1,.47.88c0,.16-.26.47-.47.53a2.77,2.77,0,0,1-.93-.08Z"/><path d="M3.17,98.28l1.16.33c-.07.61-.1,1.21-1.2,1.37-.34,0-.65.59-.81,1A6.8,6.8,0,0,0,2,102.36l.3.08c.2-.51.25-1.14.65-1.51a3.32,3.32,0,0,1,1.75-.52c-1.61,1.35-2.27,2.66-1.74,3.78l1.1-2.07.33.12-.19.85.27.13c.15-.18.31-.36.45-.55a4.63,4.63,0,0,0,.29-.54l.58.42,1.15-.67.09,1,.32.12.81-1.58-4.09.46,0-.39c.35,0,.85,0,1-.11.67-.6,1-1.57,2.34-1.44a4.05,4.05,0,0,0,.15-.55l1.79-.12a2.93,2.93,0,0,0,.2.52.44.44,0,0,0,.36.18.43.43,0,0,0,.33-.23c.3-.88.58-1.77.86-2.66h.29a5,5,0,0,1-.11,1c-.15.5-.43,1-.59,1.49s-.52,1,.63,1.35c.73.21,1.16,1.14,1.8,1.82.42-1,.88-2.19,1.35-3.35l.33.09-.57,2.55.36.08c.38-.84.77-1.67,1.26-2.74l.41,1.29,1.21-1.3c-.27.79.13,1.78-1,2.42l-.26-.78c-.58.88-1.4,1.68-.75,3l.87-1.94.86,1c.4-1,.73-1.85,1-2.69l.32,0L18.26,102l.26.16,1.29-1.64c-.15.86-.29,1.64-.42,2.42l.4.09,1.09-2,.77.8.71-.83v1.7l.28.08,1.05-1.74.26.08c-.25.81-.51,1.62-.77,2.43l.38.22.64-1.12.34.19.41.86,1-1.08c-.07.79-.12,1.3-.16,1.81l.28.11,1.24-2a5.19,5.19,0,0,1,1.07,1.08,2.21,2.21,0,0,1,0,1.3,7.39,7.39,0,0,1-.47,1.23l.38.13,1.17-2.41.43.08-.45,1.86.16.07,1.18-1.54.27.12-.45,1.77.22.09.85-.8c1.21.61,1.37-.21,1.54-.71h1.82c-.14.64-.28,1.33-.42,2l.23.05.92-1.41,1.12.7.59-1,.33.13c-.38.88-.76,1.77-1.15,2.66l.43.17,1-1.13.3.12c-.17.7-.33,1.41-.5,2.12l.23.08,1.47-3,.22,0v1.8l.92-.9c.11.51.2,1,.35,1.67l.76-1,.67.65.68-.54.25.07-.3,1.63,1-.7.27.08c-.23.81-.47,1.62-.7,2.43l.28.1,1.76-3c.62,1.24-1.21,2-.6,3.06l1.09-.79.2.11c-.18.57-.37,1.14-.55,1.71l.23.07,1.86-3,.33.09V111l1.65-.2.18.23,1.42-2.17.21.07-.29,1.3.25.09,1.13-1.11.25.11q-1,2.05-1.9,4.11l.46.16,1.93-2.79c-.27.87-.55,1.74-.86,2.71.73-.15,1.48.62,2.09-.36.83-1.32.91-1.3.39-1.83l-.88,1.15c-.89-.28-.65-.59-.24-1a13.21,13.21,0,0,0,1.11-1.58l-.5-.28-1,1,.39-1.89,1.84.33.19,1.18,1-.62c-.29.84-.51,1.45-.75,2.12.87,0,1.09-1.52,2.13-.37a5.22,5.22,0,0,0,.59-.71c.32-.55.41-1.24,1.56-.92.25.06.75-.48,1.38-.92l-.66,1.72,1.85.51.54-.72.68.72.75-.58c.5.44,1.07.67,1.5-.15l.92.7.77-1.41.35.11c-.23.65-.46,1.3-.68,2l.24.17.6-.35a9.79,9.79,0,0,0,1.14.13c.27-.81,1.25-.62,1.76-.64s1.24.49,1.86.77a4.88,4.88,0,0,1,.46.29l1.06-1.11c.32.33.94.71.87,1-.31,1.22,1,.89,1.57,1.18.09,0,.5-.25.66-.45A21.09,21.09,0,0,1,80,110.53a2.68,2.68,0,0,0,2.72,1.4,11,11,0,0,1,2.74.67l3.13-1.19.23.32c-.1.11-.3.23-.29.33.06.36.15,1,.28,1A13.69,13.69,0,0,0,91.4,113a13.35,13.35,0,0,1,2.55-.5c.62,0,1.18.66,1.9,1.1-.91.53-1.74,1-2.49,1.47-.24.16-.26.55-.38.84.42.1.94.38,1.23.26,1.56-.62,3.07-1.33,4.58-2,.6-.28,1.25,0,1.08.5s.17,1,.64,1.42a15,15,0,0,0,2.67,1.86c.47.21,1.33-.15,2.24-.28l-.61,2c1.26.61,2.62,1.28,4,.32l.94,1.52c.45-.46.89-.92,1.32-1.39.07-.07,0-.19.07-.29l0,0h2.23c-.13.92.16,1.62,1.6,1.61.24,0,.49.42.57.5a16.54,16.54,0,0,0,2.16-.72,7.06,7.06,0,0,0,1.3-1.07l2.17,2c.77-.33,1.53-1.46,1.07-2-.26-.31-.86-.42-1.45-.7l1.42-1.59.31.14-.4,1.07.16.08,1.17-1.14.29.19a2.78,2.78,0,0,0-.51.82c-.22,1.06-.38,2.14-.53,3.22,0,.14.14.31.23.45a4.7,4.7,0,0,0,.33.4l1.1-1,0,0,1.43.84-1.2,1.71c2.07.06,2.85-.59,3-2.22l2.32.74-1.09,1.59.37.19,1.73-1.78.52.76,1.38-1.27.26.71c1.54-.79,2.82-1.48,4.15-2.11a2.57,2.57,0,0,1,2.82,1,7.06,7.06,0,0,0,2.38,1.6,5,5,0,0,0,1.51.2l.18.69.45.3,1.32-1.81.36.27-.61.86.32-.1,1.31,2.42,2.27-.52c.87,1.29,1,1.31,2.61.2a2.55,2.55,0,0,1,3.26.88,8.4,8.4,0,0,0,.9,1l-.32,2H0V104.51c.42-.76.86-1.51,1.25-2.27,0-.07-.2-.31-.34-.34a.63.63,0,0,0-.46.22,9.88,9.88,0,0,0-.45,1V97.56a3.32,3.32,0,0,0,2.75-2.17l.3.16-.6,1.88H4.87l.08.2c-.31.08-.63.14-.93.25s-.58.29-.88.43l-.79-.48c-.17.21-.45.42-.47.64,0,.56-.3.77-1,.63-.15,0-.36.13-.4.14l1.23,1.32A1.84,1.84,0,0,1,3.9,99.4L3.77,99,2,98.86Zm135.41,27.65-1.66-1.12-.18.15-.21-.9-1.13,1.57c.64.21,1.18.38,1.71.59S138.25,126.83,138.58,125.93Zm-4.5-2.32-2,2.28,1.78.47C133.91,125.52,134,124.68,134.08,123.61Zm-129.16-18,.27.09.89-2.25C5.45,103.47,5.45,103.47,4.92,105.63ZM50.68,113l.72-1.52C50.31,111.74,50.12,112.28,50.68,113ZM33.49,116l.47.12.91-1.79-.54-.17Z"/><path d="M0,65.4l1.36.36c.56.38,1,.67,1.42.92.05,0,.33-.25.51-.39l-.87-.49c1.18-.81,2-.71,2.85.4l.57-1.51-3.22.25c.39-.54,1-1,0-1.25L4,63.11l-1.54-.33c2.35-.5,2.69-.89,3.4.58,1.47,0,1.47,0,1.84,2.25L6.32,66l1.1.39c-.36.64-.68,1.24-1,1.9l1.09.47c-1,.74-.7,1.47.1,2.18l-.82.52,2.77.31L9,70.39l.34-.11,1.36,2.66c-1.25.19-1.3.29-.66,1.19l-2,.31,1.41.76-.78.27c0,.45.07.87.12,1.43l.71.33L5.61,78.62l0,.34,1.59.37v.22l-2,.64,2.07.4,0,.16L4.85,81l0,.24,1.54.27c-1.9,0-2.9,1.36-4.32,2.07H4.22c-.48,1-1.65.43-2.64.9L4.09,85c-.43.75-1.91-.4-2.06.85l2.27-.19c-1.49,1-2.58,1.95-4.3,1.95Zm3.62,8.31.25.26,1.87-1.24-.18-.2-1.29.1ZM1.8,67.49v-.25a2.47,2.47,0,0,0-.92-.08c-.22.06-.5.36-.47.53a2.8,2.8,0,0,0,.47.88l.29-.13-.24-.62Z"/><path d="M0,90.22a3.26,3.26,0,0,0,1-.09c.61-.29,1.91.57,2-.8C3,89.19,4,89,4.58,89a7.38,7.38,0,0,1,1.33.1L3.15,91l.51.39L2.1,92l-.23-.22.72-1.09c-.93.09-1.88-.37-2.19.77,0,.13-.26.23-.39.34H0Z"/><path d="M0,91.8H0l2,.67-1.47.87,2,.18,0,.15-2,.4c.38.61.77,1.25-.58,1.31Z"/><path class="cls-1" d="M0,103.12a9.88,9.88,0,0,1,.45-1,.63.63,0,0,1,.46-.22c.14,0,.37.27.34.34-.39.76-.83,1.51-1.25,2.27Z"/><path d="M0,89l2.58.14A3.42,3.42,0,0,1,0,89.62Z"/><path d="M0,88l1.87-.16c-.24,1-1.32.43-1.87.76Z"/><path class="cls-1" d="M53.69,110.59l1-1,.5.28a13.21,13.21,0,0,1-1.11,1.58c-.41.45-.65.76.24,1l.88-1.15c.52.53.44.51-.39,1.83-.61,1-1.36.21-2.09.36.31-1,.59-1.84.86-2.71Z"/><path d="M6,99.66l.34-.76L5,98.82l.81-1.41a7.44,7.44,0,0,1,.83,1,1.23,1.23,0,0,1,.21.89c0,.2-.46.34-.71.51Z"/><path d="M9.61,76.47c.43-.49.78-.87,1.16-1.29l.81,1.2Z"/><path d="M15.9,97c-.69.6.08,1.7-1.41,2.3.44-1,.76-1.68,1.09-2.41Z"/><path d="M8.31,61.87l-1.75.87-.24-.3,1.65-1Z"/><path d="M50.62,108.6l-.79,1.69C49.31,109.73,49.44,109.35,50.62,108.6Z"/><path d="M5.6,96.51a10.69,10.69,0,0,1,1.18-.25c.37,0,.75,0,1.11,0C7.6,96.8,6.74,97,5.6,96.51Z"/><path class="cls-1" d="M3.17,98.28,2,98.86,3.77,99l.13.37a1.84,1.84,0,0,0-2.18,1.16L.49,99.24s.25-.17.4-.14c.69.14.94-.07,1-.63,0-.22.3-.43.47-.64l.79.48Z"/><path class="cls-1" d="M4.92,105.63c.53-2.16.53-2.16,1.16-2.16l-.89,2.25Z"/><path class="cls-1" d="M50.68,113c-.56-.76-.37-1.3.72-1.52Z"/><path class="cls-1" d="M33.49,116l.84-1.84.54.17L34,116.09Z"/><path class="cls-1" d="M3.62,73.71l.65-1.08,1.29-.1.18.2L3.87,74Z"/><path class="cls-1" d="M1.8,67.49l-.88.33.24.62-.29.13a2.8,2.8,0,0,1-.47-.88c0-.17.25-.47.47-.53a2.47,2.47,0,0,1,.92.08Z"/><path d="M247.93,107.85a4,4,0,0,1-.77-.76,21.5,21.5,0,0,1-.82-2l1.33.89.24-.14L247,104l.35-.14,3.07,5.48.29-.08-.93-2.57.39-.15,1.32,2.16.3-.11-1.42-3.31-.58.67h-.32l-.09-1.2-1-.7.22-.21,1,.75-.32-1.65.36-.17.41.8.39-.16-.19-1.46,1.27,1.6.38-.17-.63-1.4,1.42.67-.92-2.33.27-.12,2.89,5.24.39-.12-1.23-2.73.45-.14,1.59,3c-1,.45-1,1.45-.18,1.65a7,7,0,0,0,1.38.1l1.57-.66.87.82.35-.12-1.46-3.63.39-.15,1.33,2.38.4-.14-2.41-5.31.27-.14.93.88.27-.08-1-2.58.19-.11a11.35,11.35,0,0,1,.84,1,9.54,9.54,0,0,1,.55,1.11l.48-.14-1.64-3.79,1.16.71c.19-.44-.13-1.26,1.21-.73L260,93.69l-.36.11.91,2.11-2.54.88c-.69-.73,1.45-1.63-.35-2.38l.46-.09,1.32,1.44.28-.15c-.18-.49-.36-1-.53-1.48s-.49-.69.15-1.11c.25-.16-.15-1,0-1.68l.57.9.27-.11.24-.85,1.17.62L261,90.67l1.42-1.83L261.3,87l.1-.07,1.66,1.45.21-.15-.76-1.53,1.31.88.24-.11-.48-1.53.09,0,1.49,2v18.86l-1.18-2a2.21,2.21,0,0,0,1.18,2.37v23.23H239.09a23.26,23.26,0,0,0-3.6-5.5,3.39,3.39,0,0,0,.45,1.33c.87,1.4,1.78,2.78,2.67,4.17h-1a7.11,7.11,0,0,0-.52-1.35c-.72-1.16-1.51-2.29-2.27-3.44l-.35.15c.88,1.55,1.77,3.09,2.66,4.64h-3.35a2.88,2.88,0,0,0-1.14-2l-.37.15,1,1.84H231.2l-1.41-2c-1.82-.28-1.83-1.65-2.28-2.78l1.17,1.09c-.49-1.11-.69-2.32-1.74-3.12l-.29.11.3,1.05-.37.13-2.31-3.88,1.15.16c-.21-.84-.33-1.57-1.41-1.82l.47-1,1.67,2,.24-.06-.54-1.73.35-.12,1.54,2.69.28-.06a8.81,8.81,0,0,0,.14-2.39,4.16,4.16,0,0,0-1.24-2.25l-.38.15.91,2-.26.13a9.08,9.08,0,0,1-.63-.79c-.54-.88-1-1.79-1.6-2.64a4.23,4.23,0,0,0-1-.78l0,0-.33-1.32c.39-.36,1.6-.59.61-1.24l1.15-1.13.73.07,0-.75.24,0c.13.24.43.52.37.72-.2.64-.55,1.24-.8,1.87-.11.29-.31.68-.17.9.79,1.32,1.67,2.59,2.51,3.87l1.33-1.07-.48-1.45.91.83.24-.06-.92-2.18,1.14-.11-1.42-2.73.38-.14,1.95,3.67c-.26,0-.7,0-.74.06-.19.42.85,1.86,1.33,2l-.62-2.13c.81,1.27,1.63,2.54,2.41,3.82.35.59.63,1.2,1,1.83l2.86-.76-.87-1.64-.79.82-.49-1.51,0,0,1.31-.26.9,1.15.31-.08a4,4,0,0,0-.25-1.14c-1-1.83-2-3.65-3.05-5.47-.1-.16-.41-.23-.62-.35l0,0-1.56-3.36.2-.11,1,.68,1.57-1.39.54.77-1.16.31,1.11,1.87.4-.13-.3-1.34.25-.11a7.34,7.34,0,0,1,.49.79,2.21,2.21,0,0,0,.51.81c.77-1.51-1-2.46-1.23-3.68l1.94.54c-.71.88-.13,2.56,1.68,4l-.64-2.13.57.08-.36-1.41.47-.11,2,3.13c.07-1.61-2-3-.45-4.83l1.66,2.1.34-.12L242,104.57l.16-.09c.57.78,1.16,1.55,1.69,2.35a.61.61,0,0,1-.11.6c-.64.76-.39,1.35.76,1.72-.5.53.39,1.54-1,1.8l1,1.89.2-.06-.23-1.12.86-.18-.83-2.31c-.05,0-.13-.09-.16-.15-.16-.33-.31-.67-.51-1.09,1.61,0,.47-.92.85-1.7l2,3.78.52-.18-2.07-4.19.42-.17,2.3,4,.23-.09c0-.53-.09-1.07-.14-1.6l1.21,1.79a2.62,2.62,0,0,0-1.35-2.87Zm-5.7,19.25-.25-1.18.79.06c-.26-.63-.26-.63-1.94-.39l1.43,1.49.84,2.14.56-.23Zm-2.55-9.67,1.83,2,.31-.19a27.91,27.91,0,0,0-1.58-2.47c-.19-.25-.79-.3-1.22-.37-.07,0-.37.49-.33.51a8.46,8.46,0,0,0,1,.56c-.57.74-.39,1.33.62,1.77Zm6.63,7.67c-.29-.58-.55-1.16-.88-1.72s-.37-1.55-1.71-1.31c-.15,0-.42-.25-.57-.43s-.39-.59-.59-.89l-.31.12,1.27,2.5.56-1.15a13.39,13.39,0,0,0,.8,1.25c.46.55,1,1.07,1.45,1.61.12,1.72,1.35,3,2.23,4.46l.42-.16Zm-5.16-2.82,2.45,3.11.31-.13a15.42,15.42,0,0,0-2.9-4.48l.16,1.52-.71-.65-.22.08.73,2-.32.11L238,119.61l-.4.18c.16.27.31.54.49.8.43.63,1.68,1.18.27,2-.13.08,0,.43,0,.66s0,.64,0,1l-2.48-3.32-.24.11,1.08,2.18-.33.12-1.74-2.55c.2,1.63,2.06,4.48,2.88,4.52l-1-1.58c1.74.59,1.43,2.16,2.81,3l-1-2.52,1.32.41-.87-1.84.22-.09,1.41,1.82,1.55.15c-.1-.37-.2-.77-.34-1.16S241.32,122.67,241.15,122.28Zm-8.79,3.07-2.51-3.8-.16.07.53,1.87-.26,0L228.77,122l-.42.22,3.09,4.88.4-.15-1.22-2.51.29-.12,2,2.85.2-1.85.31-.07-.76-.57Zm9-11.09.35-.15-.9-1.73-1.39,1.06,2.79,5.22.47-.16c-.43-.82-.88-1.63-1.27-2.46s-.71-1.65-1.06-2.48l.28-.09Zm3,1.27-1.1.39,2,3.27.28-.11-.85-2.06.32-.09,1.25,1.47.23-.12-2.21-4-.35.12Zm-6.1-3.43,1.3.71-.47-1.8-1.65,1.1,1.49,2.77.37-.11ZM261,101l-.29.16,1.64,3.66.44-.13-.35-1.25a4.6,4.6,0,0,0,.68-.11c.08,0,.15-.19.14-.29s-.19-.21-.19-.21c-1,.62-.81-.48-1.27-.54l.56-1.06C261.73,102,261.41,101.32,261,101Zm-8.56,5.28-.3.17-.92-.93-.22.1,1.53,2.71.22-.07-.15-1,.89-.18-.91-1.6-.21.06Zm1.7-1.11-.46.13c0,1.5,1.14,2.63,1.9,3.89l.44-.15Zm2.13,15.93.59-.22L254.57,117l-.38.15Zm-25.91,6.3.44-.23-2.29-3.65-.52.23Zm20.24-5.18.45-.17-2.25-4-.49.19Zm-13.82-10.12-.61.19,1.77,3.55.51-.17Zm7.73,7.78c-.66-1.23-.8-2.67-2.19-3.56C243.32,117.4,243,119,244.55,119.86Zm5.74-3,.3.14c0-.94.52-.84,1.37-.32l-1.05-2.21-.27,0V116l-.83-.39-.2.14Zm-5.21,3.57-.4.13,2.47,4.52.37-.14Zm9.83-7c.13-1.71-.61-3.09-1.5-3.08Zm-2.62,1.72a3.14,3.14,0,0,0,1.43,2.67C253.94,116.66,252.81,116.05,252.29,115.21ZM230.89,121l-.43.18,1.7,2.84.36-.14Zm31-20.58.36-.16-1.14-1.89-.36.16A2.14,2.14,0,0,0,261.92,100.44Zm-26.52,10.3.46-.15-1.25-2.27-.44.16Zm10.62,9-.32.06c-.19.92.64,1.48,1.12,2.16l.31-.11Zm16.69,1.14,1.1,1.73.33-1.6ZM247.23,120l-.37.17,1.38,2.07.42-.19Zm-12.7,3.7.46-.18-1.24-2.1-.34.13Zm7.12-17.34-.53.13c0,.61.25,1.13,1.17,1.44Zm6.27,5.25-.48.2,1,1.55.41-.18Zm-1.46-.09-.3.11,1.23,2.22.33-.13ZM249,123l-.4.16,1.08,1.82.31-.12Zm-10.36-4.52-.47.23,1,1.52.37-.17Zm23.4-3c-.81.59-.79.79.17,1.65ZM249,121.57l.33-.13-1.14-1.94-.38.16Zm10.46-6.52.42-.13-.83-1.87-.36.11Z"/><path d="M187.19,130.32l-.34-1.62-1,.08c1.85-.94.43-1.5.06-2.12a12.44,12.44,0,0,0-1.31-1.54l.24-.2.9.25c.61-.46.57-1.58,1.93-1.24l.25-1.1.86,1.21,1-.68.63,1-.61,0-1.33,2.11-.43,0,1.3,1.61,1.12-1.52.27.08v1.43H191l-.05-.69,1.95.65,0,0,1.9.51,1.41-2.37c.74.72,1.3,2,3.22,1.35l-.28-.8.26-.14,1.35,1.67a22.22,22.22,0,0,0-2.75.36c-.25.06-.42.57-.49.89a2.2,2.2,0,0,0,.13.82Z"/><path d="M215.35,130.05c-1.08-1.3-2.47-2.46-2.79-4.09l.27-.14,1.79,2.25.27-.84,1.27.71-.2-1.07.86-.23-1.74-3.41.37-.16,2.59,3.78.42-.17-1-2,.31-.16L221,129.2l.42-.19-1.16-2.2.39-.17,2,3,.41-.17-3.09-5,.44-.2,3.53,5.35.39-.14-1.87-3.5.37-.13q1.22,1.91,2.44,3.81l.44-.2-3.51-5.56-.42.14.18.9-.3.14-2-2.92.41-.21,1.17,1.34.2-.1-1.17-2.58.21-.09c.61.83,1.27,1.63,1.81,2.48,1.31,2,2.54,4.1,3.86,6.13a6.11,6.11,0,0,0,1.23,1.05l0,.17h-8.13l-.7-1.51-.29.1-.36.88-.95-1.53c-.65,1,.08,1.48.39,2.06h-.72l-1.36-1.71-.37.17Z"/><path d="M203,130.32c-.83-.86.64-.93.66-1.66l.91.81c.31-.51.84-1,.84-1.46s-.5-1-.79-1.51l.32-.14,1.44,1.68.3-.15-2.39-3.68.37-.16,2.11,2.84.41-.15-.9-1.93.22-.15,1.46,1.54c.22-1.13-.64-2-2-2.13l1-1,3.64,5.39.42-1.1.59.85-.35,1.3.34.1.68-.5.83,1.26Zm6.65-1,.48-.3-1.16-2.13c-.52.56-1.1.91-1.1,1.25s.44,1,.69,1.44l.31-.12v-.91l.34-.22Z"/><path d="M227.37,130.32l0-.17c-2-3.15-3.94-6.3-6-9.43-.22-.36-.84-.53-1.13-.87-.54-.64-2-.77-1.36-2.13l.54.85,1.32-1.49,1.13.54,0,0a4.66,4.66,0,0,1,.13,1.68,1.84,1.84,0,0,0,1,2.33l.06-1,0,0a5.19,5.19,0,0,1,.84.77q2,3,3.84,6c.43.7.78,1.43,1.16,2.14l-.13,0-2.19-1.92c0-1.57-1.29-2.6-2-3.88l-.46.19,2.46,3.67,1.51,2.71Z"/><path class="cls-1" d="M228.09,130.32l-1.51-2.71v0l2.19,1.92.13,0c-.38-.71-.73-1.44-1.16-2.14q-1.89-3-3.84-6a5.19,5.19,0,0,0-.84-.77l1-1.43,0,0c1.08.25,1.2,1,1.41,1.82l-1.15-.16,2.31,3.88.37-.13-.3-1.05.29-.11c1.05.8,1.25,2,1.74,3.12l-1.17-1.09c.45,1.13.46,2.5,2.28,2.77-.58-.07-.83.07-.55.57s.51,1,.76,1.49Z"/><path d="M171.16,130.32c-.26-.16-.07-.89-.85-.45a1.39,1.39,0,0,1-.7-.58,4.84,4.84,0,0,1,.06-1.31l1.21,1.37.67-.93c1.76-.08,3.21.09,3,1.9Z"/><path d="M265.16,75.92l-.89-.28.51,1.25-2-1.29,1.1-.42-2-1.38.25-.27c.47.27.92.73,1.41.75a4.55,4.55,0,0,0,1.62-.54Z"/><path d="M177.38,130.32c.15-.22.39-.43.44-.66a1.56,1.56,0,0,0-.12-.82c0-.1-.45-.21-.47-.19a7.14,7.14,0,0,0-.5.86c-.14-.35-.34-.61-.32-.85a10.34,10.34,0,0,1,.32-1.48c.56.07,2.24,2.14,2.33,3.14Z"/><path class="cls-1" d="M238.61,130.32c-.89-1.39-1.8-2.77-2.67-4.17a3.39,3.39,0,0,1-.45-1.33,23.26,23.26,0,0,1,3.6,5.5Z"/><path class="cls-1" d="M237.18,130.32c-.89-1.55-1.78-3.09-2.66-4.64l.35-.15c.76,1.15,1.55,2.28,2.27,3.44a7.11,7.11,0,0,1,.52,1.35Z"/><path class="cls-1" d="M217.33,130.32c-.31-.58-1-1.09-.39-2.06l.95,1.53.36-.88.29-.1.7,1.51Z"/><path d="M163.51,130.32l1-1.53,1.65,1.53Z"/><path d="M230,130.32c-.25-.5-.5-1-.76-1.49s0-.64.55-.57l1.41,2.06Z"/><path d="M265.16,81.68a11.1,11.1,0,0,1-.89-1.06,15.54,15.54,0,0,1-.73-1.44l1.62.51Z"/><path d="M182.64,130.32l-.34-1.56,1.27,1.15.91-.7.32,1.11Z"/><path class="cls-1" d="M215.35,130.05l-.47-1.27.37-.17,1.36,1.71h-1.2Z"/><path d="M265.16,78.7c-1.73.51-1-1-1.76-1.25l.23-.21,1.53,1.06Z"/><path class="cls-1" d="M233.35,130.32l-1-1.84.37-.15a2.88,2.88,0,0,1,1.14,2Z"/><path class="cls-1" d="M265.16,107.09a2.21,2.21,0,0,1-1.18-2.37l1.18,2Z"/><path d="M225.51,106.74h1.11l-.12-.92c.21.09.35.12.39.18.35.62.69,1.25,1,1.87.07.12.19.3.14.36-1.17,1.39.23,2.36.81,3.46.2.37.41.73.62,1.09l-.26.13-1.13-1.18-.31.12,1.46,2.55-.32.16a7.06,7.06,0,0,1-.69-.76c-.33-.48-.55-1-.93-1.48s-.68-.85,0-1.32c.18-.12.07-.59,0-.89s-.29-.32-.39-.49c-.42-.77-.29-1.74-1.32-2.27C225.54,107.29,225.57,107,225.51,106.74Z"/><path d="M235.51,116.63c-.38-.55-.79-1.08-1.15-1.63s-.47-.87-.7-1.3l-.46.13.77,1.8c-1.05-.2-2.88-3.25-2.39-4.27l.84,1.18.29-.1-.83-2,.32-.11c1.23,2,2.73,4,3.28,6.28Z"/><path d="M194.68,114.49l-.66-.37-1.94,1.63-.63-1.88,1-.12-1.3-1.61.25-.19c.68.59,1.24,1.27,2.48,1,.23,0,.72.84,1.1,1.31Z"/><path d="M255.31,101.47l.93.88.25-.06-.24-1.43.27-.09,1.58,3.33c-.89-.16-1.66-.1-1.93-.38a10.34,10.34,0,0,1-1.27-2Z"/><path d="M218.74,123.15l.9,2.42c-1-.47-.84-2-2.48-1.31l-1.81-2.5.33-.18,1.44,1.82.27-.08v-1.16l1.39,1Z"/><path d="M221.84,112.81l.29,1.29c-1.08-.84-3-.83-3.32-2.7l3.06,1.44Z"/><path d="M214.85,125.35l-3.4-5.09c1.23.42,3.33,3.35,3.7,4.95Z"/><path d="M210.67,125.61l-1.47-2.47,1.78-.49c0,.55,0,1,0,1.5s-.06.94-.09,1.41Z"/><path d="M224,119.19l-1,1.43,0,0c-.18-.41-.6-.89-.47-1.22.32-.83-.11-1.3-.76-1.78l0,0,.31-.72h.32c.29.57.55,1.16.89,1.71C223.54,118.85,223.83,119,224,119.19Z"/><path d="M203.35,128.48a2.08,2.08,0,0,1,.33-3.42Z"/><path d="M224,114.37c.28.47.57.92.81,1.39a2.22,2.22,0,0,1,.14.63c-.24,0-.48,0-.72,0l-1.2-.05c-.39-.85.71-1.27,1-1.95Z"/><path d="M180.18,128.44l1-.91c.78.39,1,.93.42,1.44-.21.17-.93-.08-1.42-.14Z"/><path d="M227.25,113.31l1.51,2.64-.29.11C227.2,115,226.74,114.11,227.25,113.31Z"/><path d="M223.35,107.86H225l.5.45C224.51,109.14,223.8,109,223.35,107.86Z"/><path d="M234.08,110.5l.45,1.54-.24.15-1.76-2.47.22-.18,1.36,1Z"/><path d="M203.68,116.55l2.2,1C204.38,118.1,204,118,203.68,116.55Z"/><path d="M211,111.14l-1.09-2,.4-.2,1.21,1.89Z"/><path d="M256.5,95.93,258,98.4l-.39.17-1.43-2.5Z"/><path d="M213.73,117.58l1.05,2.6-.23.1c-.46-.74-.94-1.47-1.36-2.23,0-.06.38-.29.58-.44Z"/><path d="M244,105.92l-1.16-2.36.42-.15,1.15,2.33Z"/><path d="M253.39,101.22l-1.12-2.36.41-.14,1.09,2.37Z"/><path d="M215.18,121l-.35,1.75C213.77,121.64,213.86,121.32,215.18,121Z"/><path d="M170.82,127.79l1.27-1.31.44,1.1-1.59.38Z"/><path d="M194.87,122.59l1.3,1.16c-.53,0-.81-.09-1.09-.07s-.56.11-1.09.21Z"/><path d="M239,101.94l-1.41-2.28.28-.13,1.46,2.27Z"/><path d="M207.33,117.17l1.14,1.77-.46.2-1.15-1.76Z"/><path d="M213.77,117.61l-.59-1.37.33-.15,1.19,1.58-.29.2-.68-.29Z"/><path d="M213,113.91l-.86-1.73.46-.15.91,1.73Z"/><path d="M197,109.18V107.3C198,108,198,108,197,109.18Z"/><path d="M203.19,118.5l-.93-1.79.44-.15,1,1.79Z"/><path d="M208.06,115l-.91-1.83C208.32,113.77,208.67,114.49,208.06,115Z"/><path d="M258.23,104.38l.7,1.67-.48.14-.68-1.68Z"/><path d="M216.47,111.72l1.2,1.62-.35.2L216,112Z"/><path d="M221.87,112.84l-.12-1.14.26-.1,1.07,1.66-.19.15-1-.6Z"/><path d="M214.07,110.56c1.37,1.12,1.37,1.12.69,1.58Z"/><path d="M230.45,104.92l.8,1.72-.39.15-.89-1.71Z"/><path d="M197.27,119.52l1,1.55-.38.17-1-1.57Z"/><path d="M218.78,123.18l-.35-1,.41-.12,1,1.69-.17.13-.94-.69Z"/><path d="M208.65,123.9l1.15,1.54-.36.19-1.22-1.53Z"/><path d="M212.22,113.6l.87,1.79-.35.12-.88-1.78Z"/><path class="cls-1" d="M232.36,125.35l.33-.72.76.57-.31.07-.2,1.85-2-2.85-.29.12,1.22,2.51-.4.15-3.09-4.88.42-.22,1.19,1.58.26,0-.53-1.87.16-.07Z"/><path class="cls-1" d="M238.41,124.22c0-.32,0-.64,0-1s-.12-.58,0-.66c1.41-.83.16-1.38-.27-2-.18-.26-.33-.53-.49-.8l.4-.18,2.64,4.18.32-.11-.73-2,.22-.08.71.65,0,0c.17.4.37.8.52,1.21s.24.79.34,1.16l-1.55-.15-1.41-1.82-.22.09.87,1.84-1.32-.41Z"/><path class="cls-1" d="M238.38,124.19l1,2.52c-1.38-.85-1.07-2.42-2.81-3l1,1.58c-.82,0-2.68-2.89-2.88-4.52l1.74,2.55.33-.12L235.69,121l.24-.11c.82,1.11,1.65,2.21,2.48,3.32Z"/><path class="cls-1" d="M241.32,114.26l-.73-.79-.28.09c.35.83.67,1.67,1.06,2.48s.84,1.64,1.27,2.46l-.47.16-2.79-5.22,1.39-1.06.9,1.73Z"/><path class="cls-1" d="M244.32,115.53l-.44-1.09.35-.12,2.21,4-.23.12L245,116.93l-.32.09.85,2.06-.28.11-2-3.27Z"/><path class="cls-1" d="M246.33,125.07c-.48-.53-1-1-1.45-1.6a13.39,13.39,0,0,1-.8-1.25l-.56,1.15-1.27-2.5.31-.12c.2.3.37.61.59.89s.42.46.57.43c1.34-.24,1.35.71,1.71,1.31s.59,1.14.88,1.72Z"/><path class="cls-1" d="M241.17,122.3l-.16-1.52a15.42,15.42,0,0,1,2.9,4.48l-.31.13c-.81-1-1.63-2.08-2.45-3.11Z"/><path class="cls-1" d="M239.72,117.43a8.46,8.46,0,0,1-1-.56s.26-.52.33-.51c.43.07,1,.12,1.22.37a27.91,27.91,0,0,1,1.58,2.47l-.31.19-1.83-2,0,0Z"/><path class="cls-1" d="M238.22,112.1l1,2.67-.37.11-1.49-2.77,1.65-1.1.47,1.8Z"/><path class="cls-1" d="M261,101c.37.34.69,1,1.36.23l-.56,1.06c.46.06.24,1.16,1.27.54,0,0,.19.14.19.21s-.06.27-.14.29a4.6,4.6,0,0,1-.68.11l.35,1.25-.44.13-1.64-3.66Z"/><path class="cls-1" d="M252.48,106.26l-.07-.73.21-.06.91,1.6-.89.18.15,1-.22.07L251,105.6l.22-.1.92.93Z"/><path class="cls-1" d="M254.18,105.15l1.88,3.87-.44.15c-.76-1.26-1.86-2.39-1.9-3.89Z"/><path class="cls-1" d="M256.31,121.08l-2.12-4,.38-.15,2.33,3.89Z"/><path class="cls-1" d="M230.4,127.38,228,123.73l.52-.23,2.29,3.65Z"/><path class="cls-1" d="M250.64,122.2l-2.29-4,.49-.19,2.25,4Z"/><path class="cls-1" d="M244.46,109.17l.83,2.31-.86.18.23,1.12-.2.06-1-1.89c1.42-.26.53-1.27,1-1.8Z"/><path class="cls-1" d="M236.82,112.08l1.67,3.57-.51.17-1.77-3.55Z"/><path class="cls-1" d="M244.55,119.86c-1.57-.83-1.23-2.46-2.19-3.56C243.75,117.19,243.89,118.63,244.55,119.86Z"/><path class="cls-1" d="M246.31,125.1l2.67,4.28-.42.16c-.88-1.43-2.11-2.74-2.23-4.46Z"/><path class="cls-1" d="M250.29,116.89l-.68-1.13.2-.14.83.39v-1.47l.27,0,1.05,2.21c-.85-.52-1.37-.62-1.37.32Z"/><path class="cls-1" d="M245.08,120.46l2.44,4.51-.37.14-2.47-4.52Z"/><path class="cls-1" d="M254.91,113.49l-1.5-3.08C254.3,110.4,255,111.78,254.91,113.49Z"/><path class="cls-1" d="M247.93,107.85l-.17-1.11a2.62,2.62,0,0,1,1.35,2.87l-1.21-1.79Z"/><path class="cls-1" d="M252.29,115.21c.52.84,1.65,1.45,1.43,2.67A3.14,3.14,0,0,1,252.29,115.21Z"/><path class="cls-1" d="M230.89,121l1.63,2.88-.36.14-1.7-2.84Z"/><path class="cls-1" d="M242.26,127.08l-1.43-1.49c1.68-.24,1.68-.24,1.94.39l-.79-.06.25,1.18Z"/><path class="cls-1" d="M231.44,114.07l.62,2.13c-.48-.18-1.52-1.62-1.33-2,0-.08.48,0,.74-.06Z"/><path class="cls-1" d="M261.92,100.44a2.14,2.14,0,0,1-1.14-1.89l.36-.16,1.14,1.89Z"/><path class="cls-1" d="M235.4,110.74l-1.23-2.26.44-.16,1.25,2.27Z"/><path class="cls-1" d="M246,119.74l1.11,2.11-.31.11c-.48-.68-1.31-1.24-1.12-2.16Z"/><path class="cls-1" d="M262.71,120.88l1.43.13-.33,1.6Z"/><path class="cls-1" d="M247.23,120l1.43,2-.42.19-1.38-2.07Z"/><path class="cls-1" d="M234.53,123.67l-1.12-2.15.34-.13,1.24,2.1Z"/><path class="cls-1" d="M241.65,106.33l.64,1.57c-.92-.31-1.21-.83-1.17-1.44Z"/><path class="cls-1" d="M247.92,111.58l1,1.57-.41.18-1-1.55Z"/><path class="cls-1" d="M242.23,127.1l1.43,1.89-.56.23-.84-2.14Z"/><path class="cls-1" d="M246.46,111.49l1.26,2.2-.33.13-1.23-2.22Z"/><path class="cls-1" d="M249,123l1,1.86-.31.12-1.08-1.82Z"/><path class="cls-1" d="M238.68,118.46l.9,1.58-.37.17-1-1.52Z"/><path class="cls-1" d="M239.72,117.43l0,0,0,0,.66,1.77C239.33,118.76,239.15,118.17,239.72,117.43Z"/><path class="cls-1" d="M262.08,115.43l.17,1.65C261.29,116.22,261.27,116,262.08,115.43Z"/><path class="cls-1" d="M249,121.57l-1.19-1.91.38-.16,1.14,1.94Z"/><path class="cls-1" d="M259.47,115.05l-.77-1.89.36-.11.83,1.87Z"/><path class="cls-1" d="M209.62,129.3l-.44-1-.34.22v.91l-.31.12c-.25-.48-.69-1-.69-1.44s.58-.69,1.1-1.25L210.1,129Z"/><path class="cls-1" d="M221.86,117.59c.65.48,1.08,1,.76,1.78-.13.33.29.81.47,1.22l-.06,1a1.84,1.84,0,0,1-1-2.33A4.66,4.66,0,0,0,221.86,117.59Z"/><path class="cls-1" d="M226.58,127.61l-2.46-3.67.46-.19c.7,1.28,2,2.31,2,3.88Z"/></g></g></svg>