<svg xmlns="http://www.w3.org/2000/svg" viewBox="0 0 84.89 91.58">
    <defs>
        <style>
            .cls-1 {
                fill: #ffd004;
            }
        </style>
    </defs>
    <g id="Capa_2" data-name="Capa 2">
        <g id="Capa_1-2" data-name="Capa 1">
            <path class="cls-1"
                d="M84,31.52c1.34.41,1.08,1.71,0,2.83.72,1.46.48,2.39-.93,3.38-.91.64-1.84,1.26-2.77,1.88a.25.25,0,0,1-.17,0c-.11.35-.11.74-.3.9-.63.51-1.33.93-2,1.39s-1.06.68-1.55,1.06c-1,.79-2.09,1.57-3.07,2.42-1.28,1.12-2.45,2.37-3.78,3.41a23,23,0,0,1-3,1.75c-.22.12-.46.22-.7.34.75.73,1.49,1.4,2.17,2.12a29.39,29.39,0,0,1,2.58,2.9c.8,1.12,1.41,2.38,2.11,3.57.47.79,1,1.56,1.44,2.38,1,1.92,2,3.87,3.06,5.8.35.66.75,1.3,1.11,1.95A.91.91,0,0,1,78,70.89c-.12.1-.07.47,0,.69.13.39.42.74.51,1.13.16.76-.35,1.21-1.1,1a1.69,1.69,0,0,1-.34-.1,3.79,3.79,0,0,0-2.48-.32,9.73,9.73,0,0,1-1.22.09,7.09,7.09,0,0,0-.17.89c-.06.92-.2.73-1,1-1.42.37-2-.71-3-1.18-1.39-.67-2.81-1.29-4.24-1.86s-3.14-1.06-4.62-1.78a9.54,9.54,0,0,0-2.4-.62,10.62,10.62,0,0,1-1.43-.64,18.94,18.94,0,0,1-3.09-1.62,2.35,2.35,0,0,0-.29-.12,1,1,0,0,0-.13.32c0,1.06-.07,2.13,0,3.2a9.57,9.57,0,0,1-1,3.8,20.43,20.43,0,0,1-1.6,3.12c-1.55,2.63-3.16,5.22-4.73,7.85-.35.59-.59,1.26-1,1.84s-1,1.33-1.5,2a2.8,2.8,0,0,0-.52.78c-.2.55-.4,1.1-1,1.24s-1.09-.51-1.25-1.24a46.76,46.76,0,0,0-1.72-6.26c-.86-2.4-1.69-4.8-2.58-7.19a16.76,16.76,0,0,0-.93-1.64,14.32,14.32,0,0,1-.76-1.64c-.32-.86-.63-1.73-.87-2.62s-.66-1.17-1.55-.79c-1.63.7-3.24,1.47-4.88,2.12-2.28.91-4.59,1.75-6.89,2.62-1.69.63-3.37,1.29-5.07,1.87a14.42,14.42,0,0,1-2.52.59,1.74,1.74,0,0,1-1.93-.84c-.2-.47.17-1.17.31-1.91-.46-.68-.4-1.12.14-2,.88-1.4,1.71-2.83,2.52-4.27a1,1,0,0,0-.07-.69c-.08-.21-.29-.36-.4-.57-.21-.39-.44-.76.11-1.13a1.23,1.23,0,0,0,.42-.81c0-.5.48-.61.72-.91.37-.46.58-1,.91-1.52.8-1.22,1.65-2.4,2.43-3.63,1.06-1.67,2.06-3.37,3.16-5.17-1.13-.49-2.24-.92-3.3-1.43-1.43-.69-2.85-1.4-4.23-2.19C10.25,48.6,7.21,46.81,4.16,45q-1.67-1-3.3-2c-1.34-.82-1-1.81.14-2.54.59-.39.56-.63.18-1.06-.18-.19-.34-.39-.52-.57C0,38.22,0,37.68.78,37.11a5.35,5.35,0,0,1,1.45-.78C3.1,36,4,35.8,4.89,35.53c.17-.05.45-.16.46-.26,0-.77.65-1,1.17-1.13a4.78,4.78,0,0,1,1.65-.06c.39,0,.76.15,1.18.16A5.39,5.39,0,0,0,7,31.73c0-.24.43-.48-.3-.69s-1-1.13-1.48-1.76c0-.07,0-.34.14-.41a3.07,3.07,0,0,1,2.75-.73,13.38,13.38,0,0,0,2.74.51c1.7.15,3.41.14,5.11.32s3.25.5,4.88.71c1.15.15,2.32.2,3.48.31a2.77,2.77,0,0,1,.64.26v-1l.4.17a8.62,8.62,0,0,1-.15-2.05c.11-.66-.31-1.41.29-2,.07-.06.06-.22.06-.33,0-1.2,0-2.4-.11-3.58-.21-1.8-.57-3.57-.84-5.36-.05-.33.1-.68.06-1-.21-1.82-.45-3.64-.69-5.46-.14-1-.33-2-.45-3-.06-.49,0-1,0-1.48s-.45-.72-1-.22c0-.21,0-.38,0-.42.89-.72.45-1.69.56-2.57A10.82,10.82,0,0,1,23.64.09c.31,0,.61-.08.9-.09A5,5,0,0,1,26,.29c1.61.42,2,2,3.13,2.85a5,5,0,0,1,.69.61Q31.61,5.85,33.36,8c1.57,1.9,3.15,3.79,4.7,5.71.61.76,1.15,1.58,1.72,2.38.71,1,1.41,2,2.13,3,.38.52.82,1,1.29,1.58.49-.66.9-1.26,1.35-1.82s1-1.42,1.87-1.73c.36-.11.58-.63.88-.95.59-.67,1.23-1.31,1.78-2a15.16,15.16,0,0,0,1.19-1.87c.46-.6.89-1.22,1.38-1.8s1.08-1.18,1.67-1.82l.08.42c.05,0,.1,0,.13,0l2.84-3.46c.42-.51.58-1.25,1.5-1.28.29,0,.57-.56.92-.72l1-.07a2.47,2.47,0,0,1,.87,2.83,11.28,11.28,0,0,0-.08,1.94c-.09.83-.3,1.65-.37,2.49-.12,1.56-.19,3.13-.25,4.69s-.12,3.09-.14,4.64.06,3.41,0,5.11c0,1.05-.2,2.09-.3,3.14,0,.29-.06.59-.09.92h2c1,0,2,0,3-.06,1.57,0,3.14-.11,4.72-.14s3.3,0,5,0c1.89,0,3.78-.05,5.66.06a24.43,24.43,0,0,0,3.65-.44c.41,0,1.13,0,1.2.23a3.17,3.17,0,0,1,0,1.59A3.64,3.64,0,0,1,84,31.52ZM44.31,37.3l.57-.87L44,35.92l.36,1.4c-.38.11-.53-.07-.59-.43s-.13-.54-.19-.81l-.25.08.91,2.47.11,0ZM65.6,64.6l-.43-.11-.1.14L66.5,66l.14-.15-1-1.19,1.76.59A15.81,15.81,0,0,0,66.33,64c-.06-.07-.34.11-.52.13C65.42,64.16,65.48,64.36,65.6,64.6ZM38.54,72l.58,2.9.14-.06c.12-.3.24-.61.37-.92L39.53,76h.1l.82-2.66-.16-.08-.68.72-.48-.34.26-1.8-.2,0L39,72.88c-.17-.33-.31-.6-.44-.87L39,70l-.27-.08L38,72.4Zm9-1.8-.64.12.12.85h.15l.29-.48-.15,1.19c.43.18.58,0,.5-.41s-.19-.86-.28-1.29l.6.42V67.74l-.26,0c0,.3.09.59.15.89.09.47-.07.63-.63.42C47.42,69.47,47.46,69.83,47.51,70.19Zm11.14-3.92-1.16-1.69-.12.06.5,1.66.77.22.71.52.53-.28,1.26.85c-.29-.65-.37-1.37-1.08-1.69A17.11,17.11,0,0,1,58.53,65a2.09,2.09,0,0,0,.24.6C59,65.91,58.79,66.07,58.65,66.27Zm-6.48-4.08L51,60.7l-.16.1,1.32,2v-.62l1.58,2,.1-.09-.49-.82,2.11,1.13.24-.3c-1,.1-.91-.95-1.65-1.28a10.62,10.62,0,0,1-2-1.55C52.1,61.65,52.13,61.92,52.17,62.19ZM41.47,43.92a4.76,4.76,0,0,0-.19,1.5A7.73,7.73,0,0,0,42,47.09c.21.43.53.36.65,0a4.19,4.19,0,0,0,.08-1.28c0-.59-.28-1.3,0-1.75a1.36,1.36,0,0,0,0-1.28c-.14-.36-.26-.73-.4-1.15l-.36.84a6.25,6.25,0,0,1-.58-.82,7,7,0,0,1-.3-.88c-.72.21-1,.6-.84.94a1.3,1.3,0,0,1,.2.62c0,.48-.08,1-.14,1.59l.3-.39Zm5,26.86-.75.58-.45-1L45,71.88l.21.05.11-.13a9.26,9.26,0,0,0,.84.94c.34.29.73.52,1.1.78A2.59,2.59,0,0,0,47,71.69l-.24.1Zm-7.77-2-.23-.07-.36.93c-.14-.9.55-1.72.11-2.58l-.64,2.31-.18,0-.2-.65c-.24.53,0,2.09.36,2.08l.09-.58.66.41ZM20.69,44l1,.07,0-.13-.29-.08.59-.55.7.35-.57.8c1,.53.89-.68,1.53-1-.74-.23-1.35-.43-2-.61a.35.35,0,0,0-.3.11C21.15,43.27,21,43.58,20.69,44ZM47.3,64.3l.26-.59c.83,1.16.83,1.16,1.26,1.1l-.08-.88-.16,0v.38H48.5l-.31-1.25-.15,0v1H48l-.16-.86c-.77.24-.4-.52-.63-.77-.62,1-.62,1-.3,1.53l.16-.69Zm-19.06-9c-1.22-.53-1.42.54-2.07,1.11l.89.12L26.5,57l1.6-.32,0-.12-.75-.15.79-.74L28,55.6l-.8.29-.07-.18Zm9.1,12.22c1-.84.59-1.74.19-2.81l-.34,1.22L37,65.86v-.93c-.71.8,0,1.38.19,2.06l.34-.83.16.06ZM32.05,28v-.22l-1-.61a4.21,4.21,0,0,0,.35-.27c.13-.15.4-.39.36-.47-.15-.29-.34-.22-.44.08a1.84,1.84,0,0,0-.25-.09l-.72-.11c.21.46.53.83.45,1.07-.22.71.24.84.52.88ZM23.64,45.19h-.21c.11.58.42.78,1.11.45l-.65-.12c.62-.48.62-.47,1.44-.32a2.59,2.59,0,0,0,.52-.05c-.28-.5-1.14,0-1.14-.89l-1-.25Zm2.18,14.15,0-.2a1.58,1.58,0,0,0-2,1.35l2.64-.55,0-.19-1.76.08v-.19ZM62,48.43v.11a5.14,5.14,0,0,0,1.38.21,22.91,22.91,0,0,0,2.33-.48l.51-.14L63.35,48v.14l.66.16v.13ZM70.29,39c-.76.32-1.59.32-2,1.09.3,0,.61-.22.83-.17C69.86,40.15,70.19,39.85,70.29,39Zm-33-12.7c-.28,1.06,0,1.36,1,1.3a3.57,3.57,0,0,0-.16.6.35.35,0,0,0,.19.25c.08,0,.28-.11.27-.15-.06-.57-.15-1.14-.24-1.71l-.18,0v.64L37.31,27ZM25.88,40.13A7.77,7.77,0,0,0,25.06,39,7.22,7.22,0,0,0,24,38.25l-.15.22a11.42,11.42,0,0,1,1.08,1C25.55,40.23,25.53,40.25,25.88,40.13ZM47,65.73l1,.73.14-.07-.25-1.14h-.14l-.15.59-.28-.75-.68,0,.07.76Zm-.09-22.84.3.13,1.21-2.76-.23-.09ZM65,62.13l-.25-.53.74,0-.71-.46-1.27.46.91.73.09-.11-.31-.5Zm-42.8,1.08-.44,1.67C22.8,64.93,22.83,64.84,22.21,63.21ZM68.28,44.39c1.25.7,1.9,0,2.57-.73-.72-.3-.89.32-1.18.73Zm-19.64,1-.59,2.55A2.47,2.47,0,0,0,48.64,45.37ZM35.85,64.93l.13,0c-.1-.58-.18-1.17-.31-1.74,0-.06-.34-.09-.5,0s-.11.31-.06.42C35.33,64,35.6,64.47,35.85,64.93ZM35.6,56.6l.5-1.23L35,54.84ZM31.71,36.19l-.11.06-.24-.44c.15,1.38.24,1.45,1.14.95l-.84-1.09ZM28,48.31l0-.15-.81-.29.86-.06.08-.74L27.59,47,27,48.13ZM56.2,64.39c-.22.68.56,1.76,1,1.66Zm-29.33-.33a4.22,4.22,0,0,1,.24-.61,1.94,1.94,0,0,1,.3-.33L27,62.49c-.45.22-.57.44-.52,1.1C26.48,63.72,26.67,63.84,26.87,64.06Zm.5-17.9-.07-.35-1.4-.16c.23.4.36.84.5.84A3.1,3.1,0,0,0,27.37,46.16Zm4-8.25L32.26,39c.25-1.15.25-1.15-.34-1.6l.1.66ZM29,39l1.82,1.66C30.39,39.94,30.18,39,29,39Zm2.85-17.54L33.18,23A1.35,1.35,0,0,0,31.86,21.41Zm-.16,8.87-1,.58c.45.58.86.27,1.35-.05ZM30,53.59c-1-.36-1.5-.16-1.76.55Zm6.31,6.46-.6,2.48.31.07C35.89,61.75,36.9,61.12,36.35,60.05ZM23,61.29a4.68,4.68,0,0,1,1.27-.07c.58.13.57.19.63-.4C24.22,60.91,23.46,60.5,23,61.29ZM35.8,53.65l.8-1-1-.47Zm25-15.4c-.9-.32-.28-.73-.15-1.21l-1.09.45C60.08,37.62,59.76,38.62,60.79,38.25Zm.45,16.66c-.66-.5-.73-.5-1.28.13l.66.34Zm-37-8.5,1.3.27,0-.19-.43-.17.5-.26C25,45.63,24.66,45.91,24.28,46.41Zm33.31-8-.39-.93c-.63.81-.63.81-.31,1.18ZM48,58.61c-.57.26-.72.62-.46,1.17l.67-.21Zm1.2-19c.67-.6.19-1.13.1-1.69C48.46,38.4,49.26,39,49.18,39.56ZM35.49,59.12l.43,1.48s0,0,0-.05c.07-.22.13-.44.19-.66C36.39,59.09,36.38,59.08,35.49,59.12ZM67.77,67.9l-.08.19,1,1.27V68.28ZM34.61,51.55c-.6-.11-1.15-.24-1.15-1.08l-.53.41C33.47,51.26,33.77,52.06,34.61,51.55ZM31.7,61.06l.48.74c.7-.36.34-.78.09-1.28Zm29.22-5-.13.18,1,.85.39-1-.77.08,0,.17ZM29.35,62.89c.68-.33.55-.8.45-1.3C28.74,61.71,29.31,62.34,29.35,62.89Zm33-24.59,0,.07.61-.13-.08.46.54-.14-.21-1-.73.11v.1l.48.09Zm-11.49.15-.2-.11a3.41,3.41,0,0,0-.25,1c0,.23.26.45.4.68l.14,0ZM62,57.7c.61.71,1-.29,1.6,0C63,57.13,63,57.13,62,57.7ZM20.5,66.2l.23.11c.23-.07.57-.07.68-.23.44-.66,0-.68-.46-.47C20.76,65.7,20.65,66,20.5,66.2ZM31.75,32.69c-.13-.72-.55-.85-1.09-.43l.53.82.12-.06-.24-.63Zm-1-7.84c.07.68.65.28.94.46l.29-.68Zm.44,8.57-.16.24a7.32,7.32,0,0,0,.86.49s.3-.23.29-.32a2.67,2.67,0,0,0-.33-.66l-.16.49Zm21.62-.16L54.11,32,54,31.9C52.92,32.51,52.75,32.7,52.84,33.26Zm6.47,17.62L58,50l-.1.08.87,1.08ZM42,31.73l-.16.1,1.12,2.33.17-.08Zm12.26-9v1.07l.15,0L55,22.55Zm11.52,25,1-.56-.85,0,.69-.44-1.1.15Zm2.68,22.53-.33.07a.8.8,0,0,0,.59.32,3.31,3.31,0,0,0,.7-.13l-1-.71-.12.11ZM35.62,26.13l-1-1.42A1.16,1.16,0,0,0,35.62,26.13ZM25.12,58.51l.08.24c.51-.2,1.21.1,1.66-.77Zm6.73-35.74a1,1,0,0,0-.89,1.3Zm-13.45,19c.3.51.6.92,1.23.71C19.07,42.47,19.24,41.3,18.4,41.72Zm9.22,12.85.12.3,1.35-.43L29,54.2Zm1.89-6.68-.13-.17-1,.86C29,48.63,29,48.63,29.51,47.89ZM21.26,38.4l-.23.29c.27.2.52.4.8.58,0,0,.17-.21.27-.32ZM36,48.16l-.26,0,.11,1.57.32,0Zm23.31,5.46,1,.69.1-.13-.62-.55.44-.14-.15-.42ZM45.75,69.78l.17.91.13,0,.2-.54.35.47.11,0-.07-.77ZM19.35,39.07c-.05.26-.21.65-.12.73.66.57.39-.65.88-.49Zm54.72.84c-.74-.36-.38.6-.85.62l.53.49ZM24.16,64.26c-.39.3-1-.06-1.12.77C23.42,64.73,24.16,65.26,24.16,64.26Zm23.4-23.74-.27-.1-.53,1.34.28.1ZM30.79,20.82l.2,0c.13-.17.38-.39.34-.5s-.32-.35-.5-.53l-.19.11Zm4.94,5.86.33,0c0-.42.53-.87-.19-1.35Zm12,34.26-.09-.72c-.46.33-.87.55-.59,1Zm5.8-35,.5.89.27-1.1Z" />
        </g>
    </g>
</svg>