<svg xmlns="http://www.w3.org/2000/svg" viewBox="0 0 84.89 91.58"><defs><style>.cls-1{fill:#662483;}.cls-2{fill:#fff;}</style></defs><g id="Capa_2" data-name="Capa 2"><g id="Capa_1-2" data-name="Capa 1"><path class="cls-1" d="M84,31.52c1.34.41,1.08,1.71,0,2.83.72,1.46.48,2.39-.93,3.38-.91.64-1.84,1.26-2.77,1.88a.25.25,0,0,1-.17,0c-.11.35-.11.74-.3.9-.63.51-1.33.93-2,1.39s-1.06.68-1.55,1.06c-1,.79-2.09,1.57-3.07,2.42-1.28,1.12-2.45,2.37-3.78,3.41a23,23,0,0,1-3,1.75c-.22.12-.46.22-.7.34.75.73,1.49,1.4,2.17,2.12a29.39,29.39,0,0,1,2.58,2.9c.8,1.12,1.41,2.38,2.11,3.57.47.79,1,1.56,1.44,2.38,1,1.92,2,3.87,3.06,5.8.35.66.75,1.3,1.11,1.95A.91.91,0,0,1,78,70.89c-.12.1-.07.47,0,.69.13.39.42.74.51,1.13.16.76-.35,1.21-1.1,1a1.69,1.69,0,0,1-.34-.1,3.79,3.79,0,0,0-2.48-.32,9.73,9.73,0,0,1-1.22.09,7.09,7.09,0,0,0-.17.89c-.06.92-.2.73-1,1-1.42.37-2-.71-3-1.18-1.39-.67-2.81-1.29-4.24-1.86s-3.14-1.06-4.62-1.78a9.54,9.54,0,0,0-2.4-.62,10.62,10.62,0,0,1-1.43-.64,18.94,18.94,0,0,1-3.09-1.62,2.35,2.35,0,0,0-.29-.12,1,1,0,0,0-.13.32c0,1.06-.07,2.13,0,3.2a9.57,9.57,0,0,1-1,3.8,20.43,20.43,0,0,1-1.6,3.12c-1.55,2.63-3.16,5.22-4.73,7.85-.35.59-.59,1.26-1,1.84s-1,1.33-1.5,2a2.8,2.8,0,0,0-.52.78c-.2.55-.4,1.1-1,1.24s-1.09-.51-1.25-1.24a46.76,46.76,0,0,0-1.72-6.26c-.86-2.4-1.69-4.8-2.58-7.19a16.76,16.76,0,0,0-.93-1.64,14.32,14.32,0,0,1-.76-1.64c-.32-.86-.63-1.73-.87-2.62s-.66-1.17-1.55-.79c-1.63.7-3.24,1.47-4.88,2.12-2.28.91-4.59,1.75-6.89,2.62-1.69.63-3.37,1.29-5.07,1.87a14.42,14.42,0,0,1-2.52.59,1.74,1.74,0,0,1-1.93-.84c-.2-.47.17-1.17.31-1.91-.46-.68-.4-1.12.14-2,.88-1.4,1.71-2.83,2.52-4.27a1,1,0,0,0-.07-.69c-.08-.21-.29-.36-.4-.57-.21-.39-.44-.76.11-1.13a1.23,1.23,0,0,0,.42-.81c0-.5.48-.61.72-.91.37-.46.58-1,.91-1.52.8-1.22,1.65-2.4,2.43-3.63,1.06-1.67,2.06-3.37,3.16-5.17-1.13-.49-2.24-.92-3.3-1.43-1.43-.69-2.85-1.4-4.23-2.19C10.25,48.6,7.21,46.81,4.16,45q-1.67-1-3.3-2c-1.34-.82-1-1.81.14-2.54.59-.39.56-.63.18-1.06-.18-.19-.34-.39-.52-.57C0,38.22,0,37.68.78,37.11a5.35,5.35,0,0,1,1.45-.78C3.1,36,4,35.8,4.89,35.53c.17-.05.45-.16.46-.26,0-.77.65-1,1.17-1.13a4.78,4.78,0,0,1,1.65-.06c.39,0,.76.15,1.18.16A5.39,5.39,0,0,0,7,31.73c0-.24.43-.48-.3-.69s-1-1.13-1.48-1.76c0-.07,0-.34.14-.41a3.07,3.07,0,0,1,2.75-.73,13.38,13.38,0,0,0,2.74.51c1.7.15,3.41.14,5.11.32s3.25.5,4.88.71c1.15.15,2.32.2,3.48.31a2.77,2.77,0,0,1,.64.26v-1l.4.17a8.62,8.62,0,0,1-.15-2.05c.11-.66-.31-1.41.29-2,.07-.06.06-.22.06-.33,0-1.2,0-2.4-.11-3.58-.21-1.8-.57-3.57-.84-5.36-.05-.33.1-.68.06-1-.21-1.82-.45-3.64-.69-5.46-.14-1-.33-2-.45-3-.06-.49,0-1,0-1.48s-.45-.72-1-.22c0-.21,0-.38,0-.42.89-.72.45-1.69.56-2.57A10.82,10.82,0,0,1,23.64.09c.31,0,.61-.08.9-.09A5,5,0,0,1,26,.29c1.61.42,2,2,3.13,2.85a5,5,0,0,1,.69.61Q31.61,5.85,33.36,8c1.57,1.9,3.15,3.79,4.7,5.71.61.76,1.15,1.58,1.72,2.38.71,1,1.41,2,2.13,3,.38.52.82,1,1.29,1.58.49-.66.9-1.26,1.35-1.82s1-1.42,1.87-1.73c.36-.11.58-.63.88-.95.59-.67,1.23-1.31,1.78-2a15.16,15.16,0,0,0,1.19-1.87c.46-.6.89-1.22,1.38-1.8s1.08-1.18,1.67-1.82l.08.42c.05,0,.1,0,.13,0l2.84-3.46c.42-.51.58-1.25,1.5-1.28.29,0,.57-.56.92-.72l1-.07a2.47,2.47,0,0,1,.87,2.83,11.28,11.28,0,0,0-.08,1.94c-.09.83-.3,1.65-.37,2.49-.12,1.56-.19,3.13-.25,4.69s-.12,3.09-.14,4.64.06,3.41,0,5.11c0,1.05-.2,2.09-.3,3.14,0,.29-.06.59-.09.92h2c1,0,2,0,3-.06,1.57,0,3.14-.11,4.72-.14s3.3,0,5,0c1.89,0,3.78-.05,5.66.06a24.43,24.43,0,0,0,3.65-.44c.41,0,1.13,0,1.2.23a3.17,3.17,0,0,1,0,1.59A3.64,3.64,0,0,1,84,31.52Z"/><path d="M44.31,37.3l.57-.87L44,35.92l.36,1.4c-.38.11-.53-.07-.59-.43s-.13-.54-.19-.81l-.25.08.91,2.47.11,0Z"/><path d="M65.6,64.6l-.43-.11-.1.14L66.5,66l.14-.15-1-1.19,1.76.59A15.81,15.81,0,0,0,66.33,64c-.06-.07-.34.11-.52.13C65.42,64.16,65.48,64.36,65.6,64.6Z"/><path d="M38.54,72l.58,2.9.14-.06c.12-.3.24-.61.37-.92L39.53,76h.1l.82-2.66-.16-.08-.68.72-.48-.34.26-1.8-.2,0L39,72.88c-.17-.33-.31-.6-.44-.87L39,70l-.27-.08L38,72.4Z"/><path d="M47.51,70.19l-.64.12.12.85h.15l.29-.48-.15,1.19c.43.18.58,0,.5-.41s-.19-.86-.28-1.29l.6.42V67.74l-.26,0c0,.3.09.59.15.89.09.47-.07.63-.63.42C47.42,69.47,47.46,69.83,47.51,70.19Z"/><path d="M58.65,66.27l-1.16-1.69-.12.06.5,1.66.77.22.71.52.53-.28,1.26.85c-.29-.65-.37-1.37-1.08-1.69A17.11,17.11,0,0,1,58.53,65a2.09,2.09,0,0,0,.24.6C59,65.91,58.79,66.07,58.65,66.27Z"/><path d="M52.17,62.19,51,60.7l-.16.1,1.32,2v-.62l1.58,2,.1-.09-.49-.82,2.11,1.13.24-.3c-1,.1-.91-.95-1.65-1.28a10.62,10.62,0,0,1-2-1.55C52.1,61.65,52.13,61.92,52.17,62.19Z"/><path d="M41.47,43.92a4.76,4.76,0,0,0-.19,1.5A7.73,7.73,0,0,0,42,47.09c.21.43.53.36.65,0a4.19,4.19,0,0,0,.08-1.28c0-.59-.28-1.3,0-1.75a1.36,1.36,0,0,0,0-1.28c-.14-.36-.26-.73-.4-1.15l-.36.84a6.25,6.25,0,0,1-.58-.82,7,7,0,0,1-.3-.88c-.72.21-1,.6-.84.94a1.3,1.3,0,0,1,.2.62c0,.48-.08,1-.14,1.59l.3-.39Z"/><path d="M46.44,70.78l-.75.58-.45-1L45,71.88l.21.05.11-.13a9.26,9.26,0,0,0,.84.94c.34.29.73.52,1.1.78A2.59,2.59,0,0,0,47,71.69l-.24.1Z"/><path d="M38.67,68.77l-.23-.07-.36.93c-.14-.9.55-1.72.11-2.58l-.64,2.31-.18,0-.2-.65c-.24.53,0,2.09.36,2.08l.09-.58.66.41Z"/><path d="M20.69,44l1,.07,0-.13-.29-.08.59-.55.7.35-.57.8c1,.53.89-.68,1.53-1-.74-.23-1.35-.43-2-.61a.35.35,0,0,0-.3.11C21.15,43.27,21,43.58,20.69,44Z"/><path d="M47.3,64.3l.26-.59c.83,1.16.83,1.16,1.26,1.1l-.08-.88-.16,0v.38H48.5l-.31-1.25-.15,0v1H48l-.16-.86c-.77.24-.4-.52-.63-.77-.62,1-.62,1-.3,1.53l.16-.69Z"/><path d="M28.24,55.29c-1.22-.53-1.42.54-2.07,1.11l.89.12L26.5,57l1.6-.32,0-.12-.75-.15.79-.74L28,55.6l-.8.29-.07-.18Z"/><path d="M37.34,67.51c1-.84.59-1.74.19-2.81l-.34,1.22L37,65.86v-.93c-.71.8,0,1.38.19,2.06l.34-.83.16.06Z"/><path d="M32.05,28v-.22l-1-.61a4.21,4.21,0,0,0,.35-.27c.13-.15.4-.39.36-.47-.15-.29-.34-.22-.44.08a1.84,1.84,0,0,0-.25-.09l-.72-.11c.21.46.53.83.45,1.07-.22.71.24.84.52.88Z"/><path d="M23.64,45.19h-.21c.11.58.42.78,1.11.45l-.65-.12c.62-.48.62-.47,1.44-.32a2.59,2.59,0,0,0,.52-.05c-.28-.5-1.14,0-1.14-.89l-1-.25Z"/><path d="M25.82,59.34l0-.2a1.58,1.58,0,0,0-2,1.35l2.64-.55,0-.19-1.76.08v-.19Z"/><path d="M62,48.43v.11a5.14,5.14,0,0,0,1.38.21,22.91,22.91,0,0,0,2.33-.48l.51-.14L63.35,48v.14l.66.16v.13Z"/><path d="M70.29,39c-.76.32-1.59.32-2,1.09.3,0,.61-.22.83-.17C69.86,40.15,70.19,39.85,70.29,39Z"/><path d="M37.31,26.33c-.28,1.06,0,1.36,1,1.3a3.57,3.57,0,0,0-.16.6.35.35,0,0,0,.19.25c.08,0,.28-.11.27-.15-.06-.57-.15-1.14-.24-1.71l-.18,0v.64L37.31,27Z"/><path d="M25.88,40.13A7.77,7.77,0,0,0,25.06,39,7.22,7.22,0,0,0,24,38.25l-.15.22a11.42,11.42,0,0,1,1.08,1C25.55,40.23,25.53,40.25,25.88,40.13Z"/><path d="M47,65.73l1,.73.14-.07-.25-1.14h-.14l-.15.59-.28-.75-.68,0,.07.76Z"/><path d="M46.91,42.89l.3.13,1.21-2.76-.23-.09Z"/><path d="M65,62.13l-.25-.53.74,0-.71-.46-1.27.46.91.73.09-.11-.31-.5Z"/><path d="M22.21,63.21l-.44,1.67C22.8,64.93,22.83,64.84,22.21,63.21Z"/><path d="M68.28,44.39c1.25.7,1.9,0,2.57-.73-.72-.3-.89.32-1.18.73Z"/><path d="M48.64,45.37l-.59,2.55A2.47,2.47,0,0,0,48.64,45.37Z"/><path d="M35.85,64.93l.13,0c-.1-.58-.18-1.17-.31-1.74,0-.06-.34-.09-.5,0s-.11.31-.06.42C35.33,64,35.6,64.47,35.85,64.93Z"/><path d="M35.6,56.6l.5-1.23L35,54.84Z"/><path d="M31.71,36.19l-.11.06-.24-.44c.15,1.38.24,1.45,1.14.95l-.84-1.09Z"/><path d="M28,48.31l0-.15-.81-.29.86-.06.08-.74L27.59,47,27,48.13Z"/><path d="M56.2,64.39c-.22.68.56,1.76,1,1.66Z"/><path d="M26.87,64.06a4.22,4.22,0,0,1,.24-.61,1.94,1.94,0,0,1,.3-.33L27,62.49c-.45.22-.57.44-.52,1.1C26.48,63.72,26.67,63.84,26.87,64.06Z"/><path d="M27.37,46.16l-.07-.35-1.4-.16c.23.4.36.84.5.84A3.1,3.1,0,0,0,27.37,46.16Z"/><path d="M31.39,37.91,32.26,39c.25-1.15.25-1.15-.34-1.6l.1.66Z"/><path d="M29,39l1.82,1.66C30.39,39.94,30.18,39,29,39Z"/><path d="M31.86,21.41,33.18,23A1.35,1.35,0,0,0,31.86,21.41Z"/><path d="M31.7,30.28l-1,.58c.45.58.86.27,1.35-.05Z"/><path d="M30,53.59c-1-.36-1.5-.16-1.76.55Z"/><path d="M36.35,60.05l-.6,2.48.31.07C35.89,61.75,36.9,61.12,36.35,60.05Z"/><path d="M23,61.29a4.68,4.68,0,0,1,1.27-.07c.58.13.57.19.63-.4C24.22,60.91,23.46,60.5,23,61.29Z"/><path d="M35.8,53.65l.8-1-1-.47Z"/><path d="M60.79,38.25c-.9-.32-.28-.73-.15-1.21l-1.09.45C60.08,37.62,59.76,38.62,60.79,38.25Z"/><path d="M61.24,54.91c-.66-.5-.73-.5-1.28.13l.66.34Z"/><path d="M24.28,46.41l1.3.27,0-.19-.43-.17.5-.26C25,45.63,24.66,45.91,24.28,46.41Z"/><path d="M57.59,38.38l-.39-.93c-.63.81-.63.81-.31,1.18Z"/><path d="M48,58.61c-.57.26-.72.62-.46,1.17l.67-.21Z"/><path d="M49.18,39.56c.67-.6.19-1.13.1-1.69C48.46,38.4,49.26,39,49.18,39.56Z"/><path d="M35.49,59.12l.43,1.48s0,0,0-.05c.07-.22.13-.44.19-.66C36.39,59.09,36.38,59.08,35.49,59.12Z"/><path d="M67.77,67.9l-.08.19,1,1.27V68.28Z"/><path d="M34.61,51.55c-.6-.11-1.15-.24-1.15-1.08l-.53.41C33.47,51.26,33.77,52.06,34.61,51.55Z"/><path d="M31.7,61.06l.48.74c.7-.36.34-.78.09-1.28Z"/><path d="M60.92,56.1l-.13.18,1,.85.39-1-.77.08,0,.17Z"/><path d="M29.35,62.89c.68-.33.55-.8.45-1.3C28.74,61.71,29.31,62.34,29.35,62.89Z"/><path d="M62.31,38.3l0,.07.61-.13-.08.46.54-.14-.21-1-.73.11v.1l.48.09Z"/><path d="M50.82,38.45l-.2-.11a3.41,3.41,0,0,0-.25,1c0,.23.26.45.4.68l.14,0Z"/><path d="M62,57.7c.61.71,1-.29,1.6,0C63,57.13,63,57.13,62,57.7Z"/><path d="M20.5,66.2l.23.11c.23-.07.57-.07.68-.23.44-.66,0-.68-.46-.47C20.76,65.7,20.65,66,20.5,66.2Z"/><path d="M31.75,32.69c-.13-.72-.55-.85-1.09-.43l.53.82.12-.06-.24-.63Z"/><path d="M30.78,24.85c.07.68.65.28.94.46l.29-.68Z"/><path d="M31.22,33.42l-.16.24a7.32,7.32,0,0,0,.86.49s.3-.23.29-.32a2.67,2.67,0,0,0-.33-.66l-.16.49Z"/><path d="M52.84,33.26,54.11,32,54,31.9C52.92,32.51,52.75,32.7,52.84,33.26Z"/><path d="M59.31,50.88,58,50l-.1.08.87,1.08Z"/><path d="M42,31.73l-.16.1,1.12,2.33.17-.08Z"/><path d="M54.24,22.74v1.07l.15,0L55,22.55Z"/><path d="M65.76,47.75l1-.56-.85,0,.69-.44-1.1.15Z"/><path d="M68.44,70.28l-.33.07a.8.8,0,0,0,.59.32,3.31,3.31,0,0,0,.7-.13l-1-.71-.12.11Z"/><path d="M35.62,26.13l-1-1.42A1.16,1.16,0,0,0,35.62,26.13Z"/><path d="M25.12,58.51l.08.24c.51-.2,1.21.1,1.66-.77Z"/><path d="M31.85,22.77a1,1,0,0,0-.89,1.3Z"/><path d="M18.4,41.72c.3.51.6.92,1.23.71C19.07,42.47,19.24,41.3,18.4,41.72Z"/><path d="M27.62,54.57l.12.3,1.35-.43L29,54.2Z"/><path d="M29.51,47.89l-.13-.17-1,.86C29,48.63,29,48.63,29.51,47.89Z"/><path d="M21.26,38.4l-.23.29c.27.2.52.4.8.58,0,0,.17-.21.27-.32Z"/><path d="M36,48.16l-.26,0,.11,1.57.32,0Z"/><path d="M59.28,53.62l1,.69.1-.13-.62-.55.44-.14-.15-.42Z"/><path d="M45.75,69.78l.17.91.13,0,.2-.54.35.47.11,0-.07-.77Z"/><path d="M19.35,39.07c-.05.26-.21.65-.12.73.66.57.39-.65.88-.49Z"/><path d="M74.07,39.91c-.74-.36-.38.6-.85.62l.53.49Z"/><path d="M24.16,64.26c-.39.3-1-.06-1.12.77C23.42,64.73,24.16,65.26,24.16,64.26Z"/><path d="M47.56,40.52l-.27-.1-.53,1.34.28.1Z"/><path d="M30.79,20.82l.2,0c.13-.17.38-.39.34-.5s-.32-.35-.5-.53l-.19.11Z"/><path d="M35.73,26.68l.33,0c0-.42.53-.87-.19-1.35Z"/><path d="M47.68,60.94l-.09-.72c-.46.33-.87.55-.59,1Z"/><path d="M53.48,26l.5.89.27-1.1Z"/><path class="cls-2" d="M41.47,43.92l-.83-.38-.3.39c.06-.63.13-1.11.14-1.59a1.3,1.3,0,0,0-.2-.62c-.2-.34.12-.73.84-.94a7,7,0,0,0,.3.88,6.25,6.25,0,0,0,.58.82l.36-.84c.14.42.26.79.4,1.15a1.36,1.36,0,0,1,0,1.28c-.24.45,0,1.16,0,1.75a4.19,4.19,0,0,1-.08,1.28c-.12.35-.44.42-.65,0a7.73,7.73,0,0,1-.75-1.67A4.76,4.76,0,0,1,41.47,43.92Z"/><path class="cls-2" d="M46.44,70.78l.29,1,.24-.1a2.59,2.59,0,0,1,.24,1.83c-.37-.26-.76-.49-1.1-.78a9.26,9.26,0,0,1-.84-.94l-.11.13L45,71.88l.29-1.48.45,1Z"/><path class="cls-2" d="M52.16,62.19,52,61.24a10.62,10.62,0,0,0,2,1.55c.74.33.6,1.38,1.65,1.28l-.24.3-2.11-1.13.49.82-.1.09-1.58-2Z"/><path class="cls-2" d="M58.65,66.27c.14-.2.33-.36.12-.66a2.09,2.09,0,0,1-.24-.6,17.11,17.11,0,0,0,1.53.91c.71.32.79,1,1.08,1.69l-1.26-.85-.53.28-.71-.52Z"/><path class="cls-2" d="M38.67,68.77l-.39,1.81-.66-.41-.09.58c-.32,0-.6-1.55-.36-2.08l.2.65.18,0,.64-2.31c.44.86-.25,1.68-.11,2.58l.36-.93Z"/><path class="cls-2" d="M20.69,44c.27-.42.46-.73.68-1a.35.35,0,0,1,.3-.11c.62.18,1.23.38,2,.61-.64.3-.49,1.51-1.53,1l.57-.8-.7-.35-.59.55.29.08,0,.13Z"/><path class="cls-2" d="M47.3,64.3l-.28-1-.16.69c-.32-.49-.32-.49.3-1.53.23.25-.14,1,.63.77l.16.86H48v-1l.15,0,.31,1.25h.08V64l.16,0,.08.88c-.43.06-.43.06-1.26-1.1Z"/><path class="cls-2" d="M28.24,55.29l-1.1.42.07.18.8-.29.1.11-.79.74.75.15,0,.12L26.5,57l.56-.52-.89-.12C26.82,55.83,27,54.76,28.24,55.29Z"/><path class="cls-2" d="M37.34,67.51l.32-1.29-.16-.06-.34.83c-.21-.68-.9-1.26-.19-2.06v.93l.22.06.34-1.22C37.93,65.77,38.3,66.67,37.34,67.51Z"/><path class="cls-2" d="M32.05,28l-.67.26c-.28,0-.74-.17-.52-.88.08-.24-.24-.61-.45-1.07l.72.11a1.84,1.84,0,0,1,.25.09c.1-.3.29-.37.44-.08,0,.08-.23.32-.36.47a4.21,4.21,0,0,1-.35.27l1,.61Z"/><path class="cls-2" d="M23.64,45.19,23.73,44l1,.25c0,.87.86.39,1.14.89a2.59,2.59,0,0,1-.52.05c-.82-.15-.82-.16-1.44.32l.65.12c-.69.33-1,.13-1.11-.45Z"/><path class="cls-2" d="M25.82,59.34l-1.17.3v.19l1.76-.08,0,.19-2.64.55a1.58,1.58,0,0,1,2-1.35Z"/><path class="cls-2" d="M62,48.43h2V48.3l-.66-.16V48l2.9.13-.51.14a22.91,22.91,0,0,1-2.33.48A5.14,5.14,0,0,1,62,48.54Z"/><path class="cls-2" d="M47.51,70.19l-.15-1.12c.56.21.72.05.63-.42-.06-.3-.1-.59-.15-.89l.26,0v2.85l-.6-.42Z"/><path class="cls-2" d="M70.29,39c-.1.82-.43,1.12-1.19.92-.22-.05-.53.16-.83.17C68.7,39.35,69.53,39.35,70.29,39Z"/><path class="cls-2" d="M37.31,26.33V27l.85.31v-.64l.18,0c.09.57.18,1.14.24,1.71,0,0-.19.16-.27.15a.35.35,0,0,1-.19-.25,3.57,3.57,0,0,1,.16-.6C37.28,27.69,37,27.39,37.31,26.33Z"/><path class="cls-2" d="M25.88,40.13c-.35.12-.33.1-1-.66a11.42,11.42,0,0,0-1.08-1l.15-.22a7.22,7.22,0,0,1,1.09.79A7.77,7.77,0,0,1,25.88,40.13Z"/><path class="cls-2" d="M47,65.73l-.3.17-.07-.76.68,0,.28.75.15-.59h.14l.25,1.14-.14.07Z"/><path class="cls-2" d="M65.6,64.6c-.12-.24-.18-.44.21-.46.18,0,.46-.2.52-.13a15.81,15.81,0,0,1,1.06,1.21l-1.76-.59Z"/><path class="cls-2" d="M46.91,42.89l1.28-2.72.23.09L47.21,43Z"/><path class="cls-2" d="M65,62.13l-.8-.36.31.5-.09.11-.91-.73,1.27-.46.71.46-.74,0Z"/><path class="cls-2" d="M47.5,70.17c.09.43.2.86.28,1.29s-.07.59-.5.41l.15-1.19-.29.48H47l-.12-.85.64-.12Z"/><path class="cls-2" d="M22.21,63.21c.62,1.63.59,1.72-.44,1.67Z"/><path class="cls-2" d="M68.28,44.39h1.39c.29-.41.46-1,1.18-.73C70.18,44.37,69.53,45.09,68.28,44.39Z"/><path class="cls-2" d="M48.64,45.37a2.47,2.47,0,0,1-.59,2.55Z"/><path class="cls-2" d="M35.85,64.93c-.25-.46-.52-.92-.74-1.4,0-.11,0-.4.06-.42s.48,0,.5,0c.13.57.21,1.16.31,1.74Z"/><path class="cls-2" d="M35.6,56.6,35,54.84l1.07.53Z"/><path class="cls-2" d="M31.71,36.19l-.05-.52.84,1.09c-.9.5-1,.43-1.14-.95l.24.44Z"/><path class="cls-2" d="M28,48.31l-1-.18L27.59,47l.53.08-.08.74-.86.06.81.29Z"/><path class="cls-2" d="M56.2,64.39l1,1.66C56.76,66.15,56,65.07,56.2,64.39Z"/><path class="cls-2" d="M38.54,72,38,72.4l.68-2.48L39,70l-.42,2Z"/><path class="cls-2" d="M26.87,64.06c-.2-.22-.39-.34-.4-.47,0-.66.07-.88.52-1.1l.42.63a1.94,1.94,0,0,0-.3.33A4.22,4.22,0,0,0,26.87,64.06Z"/><path class="cls-2" d="M44.31,37.3v1.3l-.11,0-.91-2.47.25-.08c.06.27.15.53.19.81s.21.54.59.43Z"/><path class="cls-2" d="M27.37,46.16a3.1,3.1,0,0,1-1,.33c-.14,0-.27-.44-.5-.84l1.4.16Z"/><path class="cls-2" d="M31.39,37.91l.63.15-.1-.66c.59.45.59.45.34,1.6Z"/><path class="cls-2" d="M29,39c1.17,0,1.38,1,1.82,1.66Z"/><path class="cls-2" d="M31.86,21.41A1.35,1.35,0,0,1,33.18,23Z"/><path class="cls-2" d="M31.7,30.28l.37.53c-.49.32-.9.63-1.35.05Z"/><path class="cls-2" d="M30,53.59l-1.76.55C28.54,53.43,29.07,53.23,30,53.59Z"/><path class="cls-2" d="M36.35,60.05c.55,1.07-.46,1.7-.29,2.55l-.31-.07Z"/><path class="cls-2" d="M23,61.29c.51-.79,1.27-.38,1.9-.47-.06.59-.05.53-.63.4A4.68,4.68,0,0,0,23,61.29Z"/><path class="cls-2" d="M35.8,53.65l-.15-1.45,1,.47Z"/><path class="cls-2" d="M58.65,66.27v.25l-.77-.22-.5-1.66.12-.06Z"/><path class="cls-2" d="M60.79,38.25c-1,.37-.71-.63-1.24-.76L60.64,37C60.51,37.52,59.89,37.93,60.79,38.25Z"/><path class="cls-2" d="M61.24,54.91l-.62.47L60,55C60.51,54.41,60.58,54.41,61.24,54.91Z"/><path class="cls-2" d="M24.28,46.41c.38-.5.75-.78,1.41-.35l-.5.26.43.17,0,.19Z"/><path class="cls-2" d="M57.59,38.38l-.7.25c-.32-.37-.32-.37.31-1.18Z"/><path class="cls-2" d="M48,58.61l.21,1-.67.21C47.26,59.23,47.41,58.87,48,58.61Z"/><path class="cls-2" d="M49.18,39.56c.08-.61-.72-1.16.1-1.69C49.37,38.43,49.85,39,49.18,39.56Z"/><path class="cls-2" d="M35.49,59.12c.89,0,.9,0,.67.77-.06.22-.12.44-.19.66,0,0,0,0,0,.05Z"/><path class="cls-2" d="M67.77,67.9l.92.38v1.08l-1-1.27Z"/><path class="cls-2" d="M34.61,51.55c-.84.51-1.14-.29-1.68-.67l.53-.41C33.46,51.31,34,51.44,34.61,51.55Z"/><path class="cls-2" d="M31.7,61.06l.57-.54c.25.5.61.92-.09,1.28Z"/><path class="cls-2" d="M60.92,56.1l.49.28,0-.17.77-.08-.39,1-1-.85Z"/><path class="cls-2" d="M29.35,62.89c0-.55-.61-1.18.45-1.3C29.9,62.09,30,62.56,29.35,62.89Z"/><path class="cls-2" d="M62.31,38.3l.64-.39-.48-.09v-.1l.73-.11.21,1-.54.14.08-.46-.61.13Z"/><path class="cls-2" d="M50.82,38.45l.09,1.48-.14,0c-.14-.23-.39-.45-.4-.68a3.41,3.41,0,0,1,.25-1Z"/><path class="cls-2" d="M62,57.7c1-.57,1-.57,1.6,0C62.94,57.41,62.58,58.41,62,57.7Z"/><path class="cls-2" d="M20.5,66.2c.15-.21.26-.5.45-.59.47-.21.9-.19.46.47-.11.16-.45.16-.68.23Z"/><path class="cls-2" d="M31.75,32.69l-.68-.3.24.63-.12.06-.53-.82C31.2,31.84,31.62,32,31.75,32.69Z"/><path class="cls-2" d="M30.78,24.85,32,24.63l-.29.68C31.43,25.13,30.85,25.53,30.78,24.85Z"/><path class="cls-2" d="M31.22,33.42l.5.24.16-.49a2.67,2.67,0,0,1,.33.66c0,.09-.24.34-.29.32a7.32,7.32,0,0,1-.86-.49Z"/><path class="cls-2" d="M52.84,33.26c-.09-.56.08-.75,1.13-1.36l.14.13Z"/><path class="cls-2" d="M44.32,37.32,44,35.92l.92.51-.57.87Z"/><path class="cls-2" d="M59.31,50.88l-.57.25-.87-1.08L58,50Z"/><path class="cls-2" d="M65.6,64.6l0,0,1,1.19L66.5,66l-1.43-1.34.1-.14Z"/><path class="cls-2" d="M42,31.73l1.13,2.35-.17.08-1.12-2.33Z"/><path class="cls-2" d="M52.15,62.17v.62l-1.32-2,.16-.1,1.18,1.49Z"/><path class="cls-2" d="M54.24,22.74l.76-.19-.61,1.29-.15,0Z"/><path class="cls-2" d="M65.76,47.75l-.27-.9,1.1-.15-.69.44.85,0Z"/><path class="cls-2" d="M68.44,70.28l-.16-.34.12-.11,1,.71a3.31,3.31,0,0,1-.7.13.8.8,0,0,1-.59-.32Z"/><path class="cls-2" d="M35.62,26.13a1.16,1.16,0,0,1-1-1.42Z"/><path class="cls-2" d="M25.12,58.51,26.86,58c-.45.87-1.15.57-1.66.77Z"/><path class="cls-2" d="M31.85,22.77,31,24.07A1,1,0,0,1,31.85,22.77Z"/><path class="cls-2" d="M18.4,41.72c.84-.42.67.75,1.23.71C19,42.64,18.7,42.23,18.4,41.72Z"/><path class="cls-2" d="M27.62,54.57,29,54.2l.08.24-1.35.43Z"/><path class="cls-2" d="M29.51,47.89c-.55.74-.55.74-1.16.69l1-.86Z"/><path class="cls-2" d="M21.26,38.4l.84.55c-.1.11-.26.33-.27.32-.28-.18-.53-.38-.8-.58Z"/><path class="cls-2" d="M36,48.16l.17,1.57-.32,0-.11-1.57Z"/><path class="cls-2" d="M59.28,53.62l.81-.55.15.42-.44.14.62.55-.1.13Z"/><path class="cls-2" d="M45.75,69.78h.89l.07.77-.11,0-.35-.47-.2.54-.13,0Z"/><path class="cls-2" d="M19.35,39.07l.76.24c-.49-.16-.22,1.06-.88.49C19.14,39.72,19.3,39.33,19.35,39.07Z"/><path class="cls-2" d="M74.07,39.91,73.75,41l-.53-.49C73.69,40.51,73.33,39.55,74.07,39.91Z"/><path class="cls-2" d="M24.16,64.26c0,1-.74.47-1.12.77C23.13,64.2,23.77,64.56,24.16,64.26Z"/><path class="cls-2" d="M47.56,40.52,47,41.86l-.28-.1.53-1.34Z"/><path class="cls-2" d="M30.79,20.82l-.15-.88.19-.11c.18.18.42.32.5.53s-.21.33-.34.5Z"/><path class="cls-2" d="M35.73,26.68l.14-1.33c.72.48.16.93.19,1.35Z"/><path class="cls-2" d="M47.68,60.94l-.68.3c-.28-.47.13-.69.59-1Z"/><path class="cls-2" d="M53.48,26l.77-.21L54,26.85Z"/></g></g></svg>